<svg width="356" height="217" viewBox="0 0 356 217" fill="none" xmlns="http://www.w3.org/2000/svg">
<g clip-path="url(#clip0_818_56071)">
<path d="M15.0408 197.951C16.5394 198.478 18.1483 198.609 19.7127 198.334C21.277 198.058 22.744 197.385 23.9724 196.378C27.1007 193.752 28.0817 189.427 28.8795 185.422L31.24 173.574L26.2981 176.977C22.744 179.424 19.11 181.95 16.6494 185.494C14.1888 189.039 13.1153 193.877 15.0918 197.713" fill="#E6E6E6"/>
<path d="M15.8042 213.12C15.1822 208.589 14.5422 203.999 14.9796 199.418C15.3672 195.351 16.6082 191.378 19.1348 188.12C20.4759 186.394 22.1078 184.915 23.9571 183.75C24.4392 183.446 24.883 184.21 24.403 184.513C21.2031 186.535 18.7281 189.521 17.3348 193.041C15.796 196.954 15.5489 201.221 15.8139 205.378C15.9741 207.893 16.3146 210.39 16.6565 212.885C16.6835 212.998 16.6667 213.117 16.6094 213.218C16.5521 213.319 16.4586 213.394 16.3479 213.429C16.2349 213.459 16.1145 213.444 16.0128 213.386C15.9111 213.328 15.8362 213.233 15.8045 213.12L15.8042 213.12Z" fill="#F2F2F2"/>
<path d="M20.2808 205.844C20.9234 206.821 21.8068 207.616 22.8459 208.152C23.885 208.689 25.0447 208.949 26.2134 208.907C29.2174 208.764 31.7207 206.668 33.974 204.678L40.6402 198.792L36.2284 198.581C33.0557 198.429 29.8011 198.287 26.7791 199.266C23.7572 200.246 20.9702 202.599 20.4177 205.727" fill="#E6E6E6"/>
<path d="M14.0459 215.721C17.0405 210.423 20.5136 204.534 26.7201 202.652C28.4457 202.13 30.255 201.943 32.0507 202.101C32.6168 202.15 32.4754 203.022 31.9105 202.974C28.9004 202.724 25.8961 203.519 23.4034 205.225C21.0046 206.857 19.1368 209.127 17.5562 211.534C16.5878 213.009 15.7205 214.546 14.8532 216.081C14.576 216.572 13.7655 216.217 14.0459 215.721Z" fill="#F2F2F2"/>
<path d="M314.6 6.78906H66.9414V124.308H314.6V6.78906Z" fill="#E6E6E6"/>
<path d="M307.519 16.8672H74.0234V114.917H307.519V16.8672Z" fill="white"/>
<path d="M314.495 0H66.8364V10.5213H314.495V0Z" fill="#F9A826"/>
<path d="M74.6552 6.81813C75.7322 6.81813 76.6052 5.94505 76.6052 4.86805C76.6052 3.79105 75.7322 2.91797 74.6552 2.91797C73.5782 2.91797 72.7051 3.79105 72.7051 4.86805C72.7051 5.94505 73.5782 6.81813 74.6552 6.81813Z" fill="white"/>
<path d="M82.0565 6.81813C83.1335 6.81813 84.0066 5.94505 84.0066 4.86805C84.0066 3.79105 83.1335 2.91797 82.0565 2.91797C80.9795 2.91797 80.1064 3.79105 80.1064 4.86805C80.1064 5.94505 80.9795 6.81813 82.0565 6.81813Z" fill="white"/>
<path d="M89.4589 6.81813C90.5359 6.81813 91.409 5.94505 91.409 4.86805C91.409 3.79105 90.5359 2.91797 89.4589 2.91797C88.3819 2.91797 87.5088 3.79105 87.5088 4.86805C87.5088 5.94505 88.3819 6.81813 89.4589 6.81813Z" fill="white"/>
<path d="M129.171 91.9743H247.182V71.7476C247.164 69.6148 246.721 67.507 245.877 65.548C245.033 63.589 243.807 61.8183 242.27 60.3397L242.238 60.3083C240.13 58.1935 233.086 52.8261 225.798 53.2812C221.948 53.5208 218.652 55.3762 216.001 58.7959C207.751 69.4444 196.913 65.8499 191.187 62.7596C186.141 60.0356 180.988 58.7571 175.869 58.9606C168.701 59.2409 158.611 61.8817 151.253 72.8711C148.442 77.065 142.33 82.7579 129.171 86.1035V91.9743Z" fill="#E4E4E4"/>
<path d="M253.859 92.4489H129.398C129.295 92.4489 129.196 92.4079 129.123 92.3348C129.05 92.2618 129.009 92.1627 129.009 92.0594V32.4051C129.009 32.3018 129.05 32.2028 129.123 32.1297C129.196 32.0567 129.295 32.0156 129.398 32.0156C129.502 32.0156 129.601 32.0567 129.674 32.1297C129.747 32.2028 129.788 32.3018 129.788 32.4051V91.6699H253.859C253.963 91.6699 254.062 91.7109 254.135 91.784C254.208 91.857 254.249 91.9561 254.249 92.0594C254.249 92.1627 254.208 92.2618 254.135 92.3348C254.062 92.4079 253.963 92.4489 253.859 92.4489Z" fill="#3F3D56"/>
<path d="M153.073 69.5039H152.309V91.8958H153.073V69.5039Z" fill="#3F3D56"/>
<path d="M175.944 59.0469H175.18V91.8967H175.944V59.0469Z" fill="#3F3D56"/>
<path d="M198.863 65.9219H198.099V91.8961H198.863V65.9219Z" fill="#3F3D56"/>
<path d="M221.781 53.3164H221.017V91.8958H221.781V53.3164Z" fill="#3F3D56"/>
<path d="M244.699 62.1055H243.936V91.8995H244.699V62.1055Z" fill="#3F3D56"/>
<path d="M175.609 61.9124C176.9 61.9124 177.946 60.866 177.946 59.5753C177.946 58.2846 176.9 57.2383 175.609 57.2383C174.318 57.2383 173.272 58.2846 173.272 59.5753C173.272 60.866 174.318 61.9124 175.609 61.9124Z" fill="#F9A826"/>
<path d="M221.446 55.7991C222.737 55.7991 223.783 54.7528 223.783 53.462C223.783 52.1713 222.737 51.125 221.446 51.125C220.155 51.125 219.109 52.1713 219.109 53.462C219.109 54.7528 220.155 55.7991 221.446 55.7991Z" fill="#F9A826"/>
<path d="M198.527 68.4046C199.818 68.4046 200.865 67.3582 200.865 66.0675C200.865 64.7768 199.818 63.7305 198.527 63.7305C197.237 63.7305 196.19 64.7768 196.19 66.0675C196.19 67.3582 197.237 68.4046 198.527 68.4046Z" fill="#F9A826"/>
<path d="M152.691 71.846C153.981 71.846 155.028 70.7996 155.028 69.5089C155.028 68.2182 153.981 67.1719 152.691 67.1719C151.4 67.1719 150.354 68.2182 150.354 69.5089C150.354 70.7996 151.4 71.846 152.691 71.846Z" fill="#F9A826"/>
<path d="M244.364 64.2053C245.655 64.2053 246.701 63.159 246.701 61.8683C246.701 60.5776 245.655 59.5312 244.364 59.5312C243.074 59.5312 242.027 60.5776 242.027 61.8683C242.027 63.159 243.074 64.2053 244.364 64.2053Z" fill="#F9A826"/>
<path d="M52.2972 212.176H56.9802L59.2078 194.113L52.2964 194.114L52.2972 212.176Z" fill="#FFB6B6"/>
<path d="M51.1025 210.645L60.3249 210.645C61.8836 210.645 63.3789 211.264 64.481 212.366C65.5832 213.468 66.2025 214.963 66.2026 216.522V216.713L51.1028 216.713L51.1025 210.645Z" fill="#2F2E41"/>
<path d="M74.4519 212.176H79.1349L81.3626 194.113L74.4512 194.114L74.4519 212.176Z" fill="#FFB6B6"/>
<path d="M73.2568 210.645L82.4792 210.645C84.0379 210.645 85.5332 211.264 86.6353 212.366C87.7375 213.468 88.3567 214.963 88.3568 216.522V216.713L73.2571 216.713L73.2568 210.645Z" fill="#2F2E41"/>
<path d="M83.1912 129.6C83.5871 129.15 83.8792 128.618 84.0471 128.042C84.2151 127.466 84.2547 126.86 84.1632 126.267C84.0717 125.674 83.8513 125.109 83.5176 124.61C83.1838 124.112 82.7449 123.692 82.2316 123.382L74.6107 86.793L66.3081 90.0641L76.4099 125.001C75.9455 125.898 75.8262 126.934 76.0746 127.913C76.323 128.892 76.9219 129.746 77.7578 130.313C78.5937 130.88 79.6085 131.12 80.6099 130.989C81.6113 130.858 82.5298 130.364 83.1912 129.6Z" fill="#FFB6B6"/>
<path d="M47.2751 122.55L43.8234 126.054C43.8234 126.054 40.1227 139.615 47.2042 156.34L51.9407 204.832L60.4626 205.474L63.0065 149.058L74.7446 167.784L72.6943 205.273L82.1143 205.056L86.3716 163.516L74.7446 120.168L47.2751 122.55Z" fill="#2F2E41"/>
<path d="M59.3442 127.272C54.1466 127.236 48.9556 126.893 43.7984 126.245L43.5908 126.217L48.7347 103.61L46.9635 74.5223L63.6892 73.9494C65.2033 73.8944 66.6844 74.4008 67.848 75.3711C69.0116 76.3414 69.7757 77.7074 69.9938 79.2067L73.417 102.414L76.5835 123.003L76.5411 123.065C74.2655 126.402 66.6572 127.272 59.3442 127.272Z" fill="#F9A826"/>
<path d="M62.167 78.7605L65.5654 74.5003C65.5654 74.5003 71.523 70.4261 73.4085 79.1565C75.294 87.8869 78.7971 102.06 78.7971 102.06L67.1477 103.003L62.167 78.7605Z" fill="#F9A826"/>
<path d="M29.9638 129.979C29.568 129.529 29.2758 128.996 29.1079 128.421C28.94 127.845 28.9004 127.239 28.9919 126.646C29.0834 126.053 29.3037 125.488 29.6375 124.989C29.9712 124.491 30.4102 124.071 30.9235 123.761L38.5444 87.1719L46.8469 90.443L36.7451 125.38C37.2096 126.277 37.3289 127.313 37.0805 128.292C36.8321 129.271 36.2332 130.125 35.3973 130.692C34.5614 131.259 33.5466 131.499 32.5452 131.368C31.5437 131.237 30.6253 130.743 29.9638 129.979Z" fill="#FFB6B6"/>
<path d="M50.9881 79.1433L47.5897 74.8831C47.5897 74.8831 41.6321 70.8089 39.7466 79.5393C37.8611 88.2698 34.3579 102.443 34.3579 102.443L46.0074 103.386L50.9881 79.1433Z" fill="#F9A826"/>
<path d="M65.3094 69.6972H43.1549C42.6992 69.6967 42.2623 69.5154 41.9401 69.1932C41.6178 68.8709 41.4365 68.434 41.436 67.9783V58.429C41.436 55.0352 42.7842 51.7805 45.1839 49.3807C47.5837 46.981 50.8384 45.6328 54.2322 45.6328C57.6259 45.6328 60.8807 46.981 63.2804 49.3807C65.6802 51.7805 67.0283 55.0352 67.0283 58.429V67.9783C67.0278 68.434 66.8465 68.8709 66.5243 69.1932C66.202 69.5154 65.7651 69.6967 65.3094 69.6972Z" fill="#2F2E41"/>
<path d="M56.6786 69.1227C61.8599 69.1227 66.0602 64.9224 66.0602 59.7411C66.0602 54.5597 61.8599 50.3594 56.6786 50.3594C51.4972 50.3594 47.2969 54.5597 47.2969 59.7411C47.2969 64.9224 51.4972 69.1227 56.6786 69.1227Z" fill="#FFB6B6"/>
<path d="M70.0554 59.3836H56.5084L56.3695 57.4387L55.6749 59.3836H53.589L53.3137 55.5288L51.9371 59.3836H47.9009V59.1926C47.9039 56.509 48.9713 53.9361 50.8689 52.0384C52.7666 50.1408 55.3394 49.0733 58.0231 49.0703H59.9331C62.6167 49.0733 65.1896 50.1408 67.0873 52.0384C68.9849 53.9361 70.0524 56.509 70.0554 59.1926V59.3836Z" fill="#2F2E41"/>
<path d="M56.3977 71.48C56.2957 71.4799 56.1939 71.4709 56.0935 71.4531L46.1738 69.7029V53.3086H57.0935L56.8231 53.6238C53.0618 58.0105 55.8955 65.1237 57.9194 68.9733C58.0686 69.2552 58.1351 69.5736 58.1113 69.8916C58.0875 70.2097 57.9744 70.5146 57.7849 70.7712C57.6262 70.9906 57.4177 71.1693 57.1766 71.2925C56.9354 71.4157 56.6685 71.48 56.3977 71.48Z" fill="#2F2E41"/>
<path d="M330.149 212.176H325.467L323.239 194.113L330.151 194.114L330.149 212.176Z" fill="#9E616A"/>
<path d="M331.344 216.713L316.244 216.713V216.522C316.244 214.963 316.863 213.468 317.966 212.366C319.068 211.264 320.563 210.645 322.121 210.645L331.344 210.645L331.344 216.713Z" fill="#2F2E41"/>
<path d="M313.343 212.176H308.66L306.432 194.113L313.344 194.114L313.343 212.176Z" fill="#9E616A"/>
<path d="M314.537 216.713L299.437 216.713V216.522C299.437 214.963 300.056 213.468 301.159 212.366C302.261 211.264 303.756 210.645 305.314 210.645L314.537 210.645L314.537 216.713Z" fill="#2F2E41"/>
<path d="M258.802 85.6063C259.177 86.121 259.659 86.5474 260.216 86.8554C260.773 87.1635 261.391 87.3457 262.026 87.3892C262.66 87.4327 263.297 87.3364 263.891 87.1072C264.485 86.878 265.021 86.5215 265.462 86.0626L274.728 89.6811L278.3 84.5864L265.143 79.6602C264.323 78.9705 263.278 78.6055 262.207 78.6344C261.136 78.6633 260.113 79.0841 259.332 79.817C258.55 80.55 258.064 81.5441 257.967 82.6111C257.869 83.6781 258.167 84.7438 258.802 85.6063Z" fill="#9E616A"/>
<path d="M313.283 116.477L301.083 120.456L305.159 206.857L314.574 207.09L319.393 146.159L320.487 206.85L332.129 207.491L336.421 116.477H313.283Z" fill="#2F2E41"/>
<path d="M305.051 65.5416L336.364 58.7383L339.846 85.6999L336.946 98.5824L338.108 118.16C338.108 118.16 313.349 130.483 301.083 120.453C301.083 120.453 310.941 94.5594 305.227 82.4379L305.051 65.5416Z" fill="#3F3D56"/>
<path d="M310.475 69.3579L305.052 65.5443C305.052 65.5443 304.731 65.1007 300.212 70.3837C295.693 75.6666 286.526 84.0701 286.526 84.0701L271.247 78.3405L268.463 88.6251L286.221 96.9002L311.361 80.1105L310.475 69.3579Z" fill="#3F3D56"/>
<path d="M338.113 128.264C338.688 127.993 339.197 127.598 339.604 127.108C340.01 126.618 340.304 126.046 340.465 125.43C340.626 124.814 340.65 124.171 340.536 123.545C340.421 122.919 340.171 122.325 339.802 121.807L345.083 113.377L340.743 108.918L333.452 120.927C332.622 121.604 332.069 122.562 331.898 123.62C331.726 124.678 331.949 125.762 332.524 126.666C333.098 127.57 333.984 128.233 335.015 128.527C336.045 128.822 337.147 128.728 338.113 128.264Z" fill="#9E616A"/>
<path d="M331.48 64.0527L336.364 58.7413C336.364 58.7413 341.806 56.8463 346.252 66.6386C350.698 76.431 355.663 96.2936 355.663 96.2936L344.053 118.657L335.037 114.628L344.053 96.1357L334.512 82.4409L331.48 64.0527Z" fill="#3F3D56"/>
<path d="M323.199 56.5281C328.125 53.8355 329.935 47.6599 327.242 42.7343C324.55 37.8088 318.374 35.9986 313.449 38.6911C308.523 41.3837 306.713 47.5593 309.406 52.4849C312.098 57.4104 318.274 59.2206 323.199 56.5281Z" fill="#9E616A"/>
<path d="M327.882 39.4809L328.375 38.4892L325.896 37.2573C325.896 37.2573 323.16 32.8069 318.211 34.0576C313.262 35.3082 311.035 36.0567 311.035 36.0567L308.562 37.3011L309.803 38.5361L307.576 39.2846L309.064 40.0237L307.333 41.0186L308.265 46.1187C308.265 46.1187 309.812 42.2505 312.788 43.7287C315.763 45.2069 321.205 42.9645 321.205 42.9645L325.933 52.1148C325.933 52.1148 326.908 48.9072 328.647 49.7625C328.647 49.7625 333.09 42.6869 327.882 39.4809Z" fill="#2F2E41"/>
<path d="M114.592 216.803H0.381974C0.280668 216.803 0.183511 216.763 0.111877 216.691C0.0402433 216.62 0 216.522 0 216.421C0 216.32 0.0402433 216.223 0.111877 216.151C0.183511 216.079 0.280668 216.039 0.381974 216.039H114.592C114.694 216.039 114.791 216.079 114.862 216.151C114.934 216.223 114.974 216.32 114.974 216.421C114.974 216.522 114.934 216.62 114.862 216.691C114.791 216.763 114.694 216.803 114.592 216.803Z" fill="#CACACA"/>
<path d="M355.618 216.803H268.146C268.045 216.803 267.948 216.763 267.876 216.691C267.804 216.62 267.764 216.522 267.764 216.421C267.764 216.32 267.804 216.223 267.876 216.151C267.948 216.079 268.045 216.039 268.146 216.039H355.618C355.72 216.039 355.817 216.079 355.888 216.151C355.96 216.223 356 216.32 356 216.421C356 216.522 355.96 216.62 355.888 216.691C355.817 216.763 355.72 216.803 355.618 216.803Z" fill="#CACACA"/>
</g>
<defs>
<clipPath id="clip0_818_56071">
<rect width="356" height="216.803" fill="white"/>
</clipPath>
</defs>
</svg>
