<svg width="358" height="225" viewBox="0 0 358 225" fill="none" xmlns="http://www.w3.org/2000/svg">
<g clip-path="url(#clip0_818_56028)">
<path d="M52.2621 224.552C81.1256 224.552 104.524 201.153 104.524 172.289C104.524 143.426 81.1256 120.027 52.2621 120.027C23.3985 120.027 0 143.426 0 172.289C0 201.153 23.3985 224.552 52.2621 224.552Z" fill="#F2F2F2"/>
<path d="M52.7296 174.466C64.2395 174.466 73.57 165.135 73.57 153.626C73.57 142.116 64.2395 132.785 52.7296 132.785C41.2197 132.785 31.8892 142.116 31.8892 153.626C31.8892 165.135 41.2197 174.466 52.7296 174.466Z" fill="#2F2E41"/>
<path d="M104.807 52.3548C104.789 62.6912 101.706 72.7901 95.9481 81.3744C90.1902 89.9586 82.0161 96.6427 72.4595 100.581C62.9028 104.52 52.3929 105.536 42.2586 103.502C32.1243 101.467 22.821 96.4733 15.525 89.1514C8.22896 81.8294 3.268 72.5084 1.26943 62.367C-0.729135 52.2256 0.324461 41.7193 4.29698 32.1767C8.2695 22.6341 14.9825 14.4837 23.5871 8.75634C32.1918 3.02895 42.3015 -0.0182437 52.638 8.21751e-05C59.5061 -0.00556365 66.3077 1.34613 72.6519 3.97749C78.996 6.60884 84.7576 10.468 89.6055 15.3331C94.4534 20.1983 98.2921 25.9735 100.901 32.3269C103.51 38.6803 104.837 45.4866 104.807 52.3548Z" fill="#F2F2F2"/>
<path d="M176.278 224.552C205.142 224.552 228.54 201.153 228.54 172.289C228.54 143.426 205.142 120.027 176.278 120.027C147.415 120.027 124.016 143.426 124.016 172.289C124.016 201.153 147.415 224.552 176.278 224.552Z" fill="#F2F2F2"/>
<path d="M176.127 104.524C204.99 104.524 228.389 81.1256 228.389 52.2621C228.389 23.3985 204.99 0 176.127 0C147.263 0 123.865 23.3985 123.865 52.2621C123.865 81.1256 147.263 104.524 176.127 104.524Z" fill="#F2F2F2"/>
<path d="M303.502 104.524C332.365 104.524 355.764 81.1256 355.764 52.2621C355.764 23.3985 332.365 0 303.502 0C274.638 0 251.24 23.3985 251.24 52.2621C251.24 81.1256 274.638 104.524 303.502 104.524Z" fill="#F2F2F2"/>
<path d="M305.391 224.552C334.254 224.552 357.653 201.153 357.653 172.289C357.653 143.426 334.254 120.027 305.391 120.027C276.527 120.027 253.128 143.426 253.128 172.289C253.128 201.153 276.527 224.552 305.391 224.552Z" fill="#F2F2F2"/>
<path d="M28.322 35.2619C30.483 28.3748 35.3973 22.0582 42.1935 19.73C48.9902 17.4018 58.9422 20.9484 64.0517 26.0407C73.3981 35.3555 75.679 67.3552 69.2576 77.4675C67.9804 77.3999 63.5732 77.3499 62.2805 77.3014L60.4518 71.2065V77.2413C58.3923 77.1777 56.3168 77.1338 54.2251 77.1095C47.2121 77.0225 40.5059 74.22 35.5164 69.291C30.5269 64.362 27.6427 57.6905 27.4702 50.6791C27.3029 43.9716 27.4704 37.9759 28.322 35.2619Z" fill="#2F2E41"/>
<path d="M51.7698 58.0855C59.9957 58.0855 66.6642 51.4171 66.6642 43.1912C66.6642 34.9653 59.9957 28.2969 51.7698 28.2969C43.5439 28.2969 36.8755 34.9653 36.8755 43.1912C36.8755 51.4171 43.5439 58.0855 51.7698 58.0855Z" fill="#9E616A"/>
<path d="M38.916 30.1106L56.0654 21.5234C59.5715 23.1034 62.5911 25.5925 64.811 28.7327C67.0308 31.8729 68.3702 35.5498 68.6902 39.3821L69.1176 44.5023L61.9363 42.6742L61.1495 36.1271L59.93 42.1635L56.6159 41.3203L56.6474 31.1559L53.3312 41.313L41.4946 38.5936L38.916 30.1106Z" fill="#2F2E41"/>
<path d="M161.927 152.679C166.002 152.679 169.305 149.375 169.305 145.3C169.305 141.225 166.002 137.922 161.927 137.922C157.852 137.922 154.548 141.225 154.548 145.3C154.548 149.375 157.852 152.679 161.927 152.679Z" fill="#2F2E41"/>
<path d="M173.733 180.717C184.057 180.717 192.426 172.348 192.426 162.024C192.426 151.701 184.057 143.332 173.733 143.332C163.41 143.332 155.041 151.701 155.041 162.024C155.041 172.348 163.41 180.717 173.733 180.717Z" fill="#2F2E41"/>
<path d="M175.279 180.711C183.668 180.711 190.469 173.911 190.469 165.522C190.469 157.133 183.668 150.332 175.279 150.332C166.89 150.332 160.09 157.133 160.09 165.522C160.09 173.911 166.89 180.711 175.279 180.711Z" fill="#9E616A"/>
<path d="M185.595 150.043C182.933 148.42 179.885 147.543 176.768 147.502C173.651 147.46 170.58 148.257 167.876 149.809C165.173 151.361 162.936 153.611 161.399 156.323C159.863 159.036 159.083 162.111 159.142 165.228C166.882 167.171 175.013 168.658 183.267 165.693L185.217 160.922L186.366 165.696C188.879 166.724 191.4 167.593 193.92 165.686C194.023 162.578 193.308 159.498 191.847 156.753C190.386 154.008 188.23 151.694 185.595 150.043Z" fill="#2F2E41"/>
<path d="M155.057 125.27C149.955 122.93 143.553 124.028 139.304 127.697C135.056 131.365 133.036 137.335 133.856 142.888C134.693 148.553 138.137 153.431 141.311 158.196C144.485 162.962 147.587 168.184 147.583 173.91C147.581 178.034 145.943 181.989 143.028 184.908C140.114 187.826 136.161 189.469 132.037 189.477C136.878 191.561 141.93 193.686 147.194 193.439C152.458 193.192 157.976 189.808 158.834 184.608C159.453 180.862 157.615 177.209 156.082 173.735C153.585 168.074 151.78 162.132 150.707 156.039C150.195 153.131 149.861 150.074 150.809 147.277C151.564 145.205 152.965 143.43 154.805 142.215C156.646 140.999 158.828 140.407 161.03 140.526L162.77 138.961C163.543 133.401 160.159 127.609 155.057 125.27Z" fill="#2F2E41"/>
<path d="M282.173 31.8207C281.455 35.6744 280.279 39.4284 278.669 43.0025C269.45 62.5054 295.704 56.1485 305.087 56.1485C315.345 56.1485 325.16 61.5427 323.661 37.5742C323.021 27.336 315.345 19 305.087 19C296.325 19 284.005 22.8947 282.173 31.8207Z" fill="#2F2E41"/>
<path d="M303.55 56.1444C311.886 56.1444 318.643 49.3867 318.643 41.0507C318.643 32.7147 311.886 25.957 303.55 25.957C295.214 25.957 288.456 32.7147 288.456 41.0507C288.456 49.3867 295.214 56.1444 303.55 56.1444Z" fill="#FFB6B6"/>
<path d="M293.299 25.6637C295.944 24.0513 298.974 23.1791 302.071 23.1382C305.168 23.0974 308.22 23.8894 310.906 25.4316C313.593 26.9737 315.816 29.2092 317.342 31.9045C318.869 34.5997 319.644 37.6556 319.585 40.7527C311.894 42.6837 303.814 44.1614 295.612 41.2146L293.675 36.4741L292.533 41.2181C290.036 42.239 287.531 43.1028 285.027 41.2082C284.925 38.1199 285.635 35.0588 287.087 32.331C288.538 29.6031 290.681 27.3041 293.299 25.6637Z" fill="#2F2E41"/>
<path d="M52.7383 177.204C63.0205 177.204 71.3559 168.869 71.3559 158.586C71.3559 148.304 63.0205 139.969 52.7383 139.969C42.456 139.969 34.1206 148.304 34.1206 158.586C34.1206 168.869 42.456 177.204 52.7383 177.204Z" fill="#FFB8B8"/>
<path d="M178.256 57.5952C187.668 57.5952 195.298 49.9653 195.298 40.5535C195.298 31.1416 187.668 23.5117 178.256 23.5117C168.844 23.5117 161.214 31.1416 161.214 40.5535C161.214 49.9653 168.844 57.5952 178.256 57.5952Z" fill="#FFB8B8"/>
<path d="M193.261 29.2926C193.261 29.2926 197.698 20.8102 187.936 20.0391C187.936 20.0391 179.614 12.49 171.132 18.659C171.132 18.659 166.505 18.659 163.975 23.8947C163.975 23.8947 160.336 22.5146 159.536 26.2081C159.536 26.2081 156.874 33.9193 159.536 40.8594C162.199 47.7995 163.084 48.5707 163.084 48.5707C163.084 48.5707 161.215 39.9584 171.865 39.1872C182.515 38.4161 192.286 31.7443 193.173 40.2267C194.061 48.709 195.037 44.8772 195.037 44.8772C195.037 44.8772 203.466 32.7626 193.261 29.2926Z" fill="#2F2E41"/>
<path d="M303.948 178.764C313.162 178.764 320.631 171.295 320.631 162.081C320.631 152.867 313.162 145.398 303.948 145.398C294.735 145.398 287.266 152.867 287.266 162.081C287.266 171.295 294.735 178.764 303.948 178.764Z" fill="#FFB6B6"/>
<path d="M91.3271 206.628C82.2728 216.93 69.5304 223.259 55.8504 224.247C42.1705 225.236 28.6505 220.805 18.209 211.912L22.6916 199.404C23.7046 197.182 25.3032 195.278 27.316 193.896C29.3288 192.514 31.6798 191.706 34.117 191.558L36.9688 191.383L43.7687 185.518C43.7687 185.518 62.0909 184.864 61.8191 184.551L72.9174 191.226L72.9082 191.18L77.271 191.447C79.7084 191.594 82.0597 192.402 84.0726 193.785C86.0855 195.167 87.684 197.071 88.6965 199.293L91.3271 206.628Z" fill="#F9A826"/>
<path d="M215.602 207.257C206.548 217.559 193.806 223.887 180.126 224.876C166.446 225.865 152.926 221.434 142.484 212.541L146.967 200.033C147.98 197.811 149.579 195.907 151.591 194.525C153.604 193.143 155.955 192.335 158.392 192.187L161.244 192.012L168.044 186.147C168.044 186.147 186.366 185.493 186.094 185.18L197.193 191.855L197.184 191.809L201.546 192.076C203.984 192.223 206.335 193.031 208.348 194.414C210.361 195.796 211.959 197.7 212.972 199.922L215.602 207.257Z" fill="#F9A826"/>
<path d="M344.599 207.257C335.545 217.559 322.802 223.887 309.122 224.876C295.443 225.865 281.922 221.434 271.481 212.541L275.964 200.033C276.977 197.811 278.575 195.907 280.588 194.525C282.601 193.143 284.952 192.335 287.389 192.187L290.241 192.012L297.041 186.147C297.041 186.147 315.363 185.493 315.091 185.18L326.189 191.855L326.18 191.809L330.543 192.076C332.98 192.223 335.332 193.031 337.345 194.414C339.357 195.796 340.956 197.7 341.968 199.922L344.599 207.257Z" fill="#F9A826"/>
<path d="M91.3271 86.8464C82.2728 97.1487 69.5304 103.477 55.8504 104.466C42.1705 105.455 28.6505 101.024 18.209 92.1307L22.6916 79.6226C23.7046 77.401 25.3032 75.497 27.316 74.1148C29.3288 72.7327 31.6798 71.9244 34.117 71.7768L36.9688 71.6017L43.7687 65.737C43.7687 65.737 62.0909 65.0828 61.8191 64.7695L72.9174 71.4451L72.9082 71.399L77.271 71.6662C79.7084 71.8132 82.0597 72.6212 84.0726 74.0035C86.0855 75.3857 87.684 77.29 88.6965 79.512L91.3271 86.8464Z" fill="#F9A826"/>
<path d="M215.141 87.0104C206.087 97.3128 193.344 103.641 179.664 104.63C165.985 105.619 152.464 101.188 142.023 92.2947L146.506 79.7866C147.519 77.565 149.117 75.6611 151.13 74.2789C153.143 72.8967 155.494 72.0885 157.931 71.9409L160.783 71.7658L167.583 65.9011C167.583 65.9011 185.905 65.2468 185.633 64.9336L196.731 71.6092L196.722 71.5631L201.085 71.8303C203.522 71.9773 205.874 72.7853 207.887 74.1675C209.899 75.5498 211.498 77.4541 212.51 79.6761L215.141 87.0104Z" fill="#F9A826"/>
<path d="M344.139 87.0104C335.084 97.3128 322.342 103.641 308.662 104.63C294.982 105.619 281.462 101.188 271.021 92.2947L275.503 79.7866C276.516 77.565 278.115 75.6611 280.128 74.2789C282.14 72.8967 284.491 72.0885 286.929 71.9409L289.78 71.7658L296.58 65.9011C296.58 65.9011 314.902 65.2468 314.631 64.9336L325.729 71.6092L325.72 71.5631L330.083 71.8303C332.52 71.9773 334.871 72.7853 336.884 74.1675C338.897 75.5498 340.496 77.4541 341.508 79.6761L344.139 87.0104Z" fill="#F9A826"/>
<path d="M321.542 151.734C320.133 146.688 316.93 142.33 312.535 139.479C309.032 137.238 304.662 136.095 300.694 137.279C296.726 138.464 293.441 142.358 293.701 146.565C292.268 146.078 290.64 146.726 289.592 147.834C288.543 148.942 287.98 150.432 287.576 151.916C286.303 156.633 286.387 161.614 287.819 166.285L287.74 166.956C289.676 166.635 291.145 164.974 292.058 163.205C292.971 161.435 293.496 159.472 294.486 157.745C295.475 156.019 297.119 154.479 299.079 154.425L298.906 157.422C300.593 156.553 302.28 155.684 303.966 154.815C303.565 155.775 303.164 156.734 302.763 157.694C304.236 157.078 305.709 156.463 307.182 155.847C307.017 156.77 306.852 157.693 306.688 158.616C308.149 155.291 312.666 153.83 315.74 155.689C317.524 156.769 318.695 158.693 319.311 160.713C319.927 162.734 320.049 164.872 320.167 166.984C322.443 162.231 322.931 156.817 321.542 151.734Z" fill="#2F2E41"/>
<path d="M72.3793 152.06C72.5099 150.67 72.5697 149.274 72.5586 147.878C72.6347 145.117 72.1288 142.37 71.0738 139.818C69.7764 136.991 67.463 134.756 64.5935 133.557C61.7492 132.41 58.5705 132.413 55.7283 133.565C53.1622 131.944 50.3111 130.659 47.3084 130.499C44.3057 130.34 41.131 131.454 39.2806 133.906C38.8674 134.554 38.3981 135.163 37.8781 135.728C36.3907 137.106 34.1302 136.907 32.1532 136.625C33.0399 137.385 33.9269 138.145 34.8141 138.905C33.7407 139.186 32.6672 139.466 31.5937 139.747C32.8464 140.506 34.0989 141.266 35.3514 142.026C31.715 144.209 30.0621 148.973 30.4987 153.299C30.9118 157.396 32.8895 161.142 35.2536 164.471C36.1967 162.481 35.9935 160.099 35.9779 157.858C35.9693 157.131 36.0137 156.404 36.1107 155.684C44.1005 157.599 52.4488 158.828 60.915 155.786L62.614 151.628C62.8525 151.652 63.091 151.675 63.3293 151.701L64.3136 155.79C66.5453 156.702 68.7816 157.499 71.0188 156.662C71.1276 157.293 71.1932 157.938 71.2435 158.557C71.4355 157.816 71.6021 157.07 71.7523 156.32C72.048 156.162 72.3312 155.981 72.5994 155.779C72.6534 154.535 72.5797 153.289 72.3793 152.06Z" fill="#2F2E41"/>
</g>
<defs>
<clipPath id="clip0_818_56028">
<rect width="357.653" height="352" fill="white"/>
</clipPath>
</defs>
</svg>
