<svg width="358" height="151" viewBox="0 0 358 151" fill="none" xmlns="http://www.w3.org/2000/svg">
<g clip-path="url(#clip0_818_55935)">
<path d="M109.202 1.40479C114.399 -0.796438 120.915 -0.554387 125.167 3.15735C119.121 4.21999 113.647 7.38675 109.711 12.0974C108.2 13.9195 106.709 16.1036 104.385 16.5555C102.939 16.8368 101.429 16.3528 100.195 15.549C98.9602 14.7452 97.9555 13.6421 96.9653 12.5515L96.6206 12.4235C99.944 7.86117 104.004 3.60602 109.202 1.40479Z" fill="#F0F0F0"/>
<path d="M125.104 3.25673C120.529 2.30881 115.772 2.82648 111.508 4.7362C110.582 5.13102 109.725 5.66921 108.968 6.33096C108.25 6.99944 107.725 7.84777 107.447 8.78782C107.17 9.6591 106.987 10.5824 106.503 11.3712C106.249 11.7712 105.913 12.1131 105.518 12.3744C105.123 12.6357 104.677 12.8104 104.209 12.8872C103.049 13.109 101.879 12.9006 100.741 12.6572C99.4785 12.3869 98.1709 12.086 96.8872 12.4031C96.7316 12.4415 96.6811 12.1979 96.8364 12.1595C99.0699 11.6079 101.23 12.8364 103.465 12.7255C104.508 12.6738 105.542 12.3075 106.166 11.4294C106.712 10.6615 106.902 9.70948 107.175 8.82485C107.433 7.90382 107.913 7.06002 108.572 6.36717C109.294 5.66898 110.129 5.09866 111.041 4.68062C113.082 3.70673 115.262 3.05965 117.503 2.76309C120.059 2.41045 122.656 2.49761 125.183 3.02082C125.339 3.05327 125.259 3.28896 125.104 3.25673Z" fill="white"/>
<path d="M112.844 4.03776C112.62 3.27887 112.674 2.46533 112.995 1.74241C113.316 1.01949 113.884 0.434271 114.597 0.0912627C114.741 0.0223536 114.855 0.243617 114.711 0.312616C114.046 0.6308 113.517 1.17598 113.22 1.84978C112.922 2.52357 112.875 3.28158 113.087 3.98701C113.133 4.14036 112.889 4.19023 112.844 4.03776Z" fill="white"/>
<path d="M107.527 8.32583C108.94 9.11268 110.597 9.33816 112.169 8.95729C112.324 8.91943 112.375 9.16301 112.219 9.20083C110.583 9.59411 108.859 9.35597 107.391 8.53392C107.251 8.45548 107.388 8.2478 107.527 8.32583Z" fill="white"/>
<path d="M119.97 2.7239C119.995 3.03553 120.097 3.33602 120.267 3.59839C120.437 3.86075 120.67 4.07677 120.944 4.22705C121.085 4.30369 120.947 4.51128 120.807 4.43514C120.505 4.2677 120.249 4.02881 120.06 3.73935C119.872 3.4499 119.757 3.11869 119.726 2.77465C119.72 2.74246 119.727 2.70934 119.745 2.68201C119.763 2.65468 119.791 2.63519 119.822 2.6275C119.855 2.62095 119.888 2.62739 119.916 2.64544C119.943 2.66349 119.963 2.69169 119.97 2.7239Z" fill="white"/>
<path d="M124.658 22.2626C124.569 22.2172 124.48 22.1718 124.388 22.1275C123.185 21.5239 121.934 21.0192 120.649 20.6182C120.55 20.5857 120.449 20.5541 120.35 20.5245C117.242 19.5914 113.989 19.2434 110.755 19.4979C109.468 19.6004 108.191 19.8007 106.935 20.0969C105.199 20.5062 103.351 21.088 101.632 20.9054C101.453 20.8884 101.274 20.8603 101.098 20.8212L96.4912 12.855C96.4898 12.8316 96.4866 12.8092 96.4851 12.7858L96.2866 12.4761C96.3504 12.4563 96.4169 12.4371 96.4806 12.4173C96.5175 12.4057 96.5555 12.3958 96.5924 12.3842C96.6174 12.377 96.6424 12.3699 96.6644 12.362C96.6727 12.3595 96.6811 12.3572 96.6876 12.3558C96.7097 12.3479 96.731 12.3429 96.7513 12.336C97.1229 12.2278 97.4959 12.122 97.8703 12.0187C97.8721 12.0176 97.8721 12.0176 97.8749 12.0184C100.72 11.2036 103.652 10.7293 106.609 10.6053C106.697 10.6028 106.787 10.5991 106.878 10.6003C108.201 10.5696 109.524 10.6472 110.834 10.8321C111.552 10.9357 112.263 11.0755 112.966 11.251C114.782 11.708 116.514 12.4478 118.1 13.4432C121.261 15.4279 123.752 18.4015 124.596 21.9879C124.618 22.0797 124.638 22.1697 124.658 22.2626Z" fill="#F0F0F0"/>
<path d="M124.547 22.3003C121.465 18.7891 117.355 16.3382 112.801 15.2959C111.824 15.0541 110.816 14.9677 109.813 15.0399C108.837 15.1419 107.907 15.5031 107.119 16.086C106.373 16.6148 105.671 17.242 104.81 17.5802C104.366 17.7468 103.893 17.8178 103.42 17.7884C102.947 17.7591 102.486 17.6301 102.066 17.4099C101.006 16.8886 100.197 16.0176 99.4356 15.1383C98.5899 14.1621 97.727 13.1347 96.5111 12.6149C96.3638 12.5519 96.4701 12.327 96.6172 12.3899C98.7327 13.2942 99.718 15.5757 101.569 16.8328C102.433 17.4194 103.479 17.7492 104.506 17.424C105.405 17.1398 106.129 16.4936 106.879 15.9516C107.64 15.3717 108.531 14.9868 109.475 14.8307C110.471 14.7076 111.481 14.755 112.462 14.9708C114.677 15.4214 116.808 16.2176 118.776 17.3301C121.029 18.5873 123.05 20.2207 124.752 22.1595C124.858 22.2796 124.652 22.4195 124.547 22.3003Z" fill="white"/>
<path d="M114.288 15.5432C114.566 14.8028 115.099 14.1856 115.791 13.8018C116.482 13.4179 117.288 13.2924 118.063 13.4477C118.22 13.4797 118.178 13.7249 118.021 13.6929C117.299 13.547 116.549 13.6639 115.905 14.0227C115.262 14.3814 114.768 14.9584 114.513 15.6493C114.457 15.7994 114.232 15.6924 114.288 15.5432Z" fill="white"/>
<path d="M107.463 15.7677C108.117 17.2465 109.304 18.4244 110.788 19.0665C110.936 19.13 110.829 19.355 110.682 19.2915C109.139 18.6205 107.906 17.3922 107.228 15.8518C107.164 15.7049 107.398 15.6217 107.463 15.7677Z" fill="white"/>
<path d="M120.768 18.7894C120.601 19.0534 120.501 19.3549 120.479 19.6668C120.457 19.9786 120.513 20.2911 120.641 20.5762C120.707 20.7221 120.473 20.8053 120.407 20.6602C120.266 20.3446 120.205 19.9994 120.229 19.6548C120.253 19.3102 120.361 18.9767 120.543 18.6833C120.558 18.6542 120.583 18.6319 120.614 18.6208C120.645 18.6098 120.679 18.6109 120.709 18.6239C120.738 18.6381 120.761 18.6634 120.772 18.6944C120.784 18.7254 120.782 18.7596 120.768 18.7894Z" fill="white"/>
<path d="M305.666 146.865H301.587L299.647 131.133L305.667 131.133L305.666 146.865Z" fill="#A0616A"/>
<path d="M306.706 150.817L293.555 150.817V150.65C293.555 149.293 294.094 147.991 295.054 147.031C296.014 146.071 297.316 145.531 298.674 145.531L306.707 145.532L306.706 150.817Z" fill="#2F2E41"/>
<path d="M337.425 145.095L333.392 145.704L329.122 130.439L334.409 129.539L337.425 145.095Z" fill="#A0616A"/>
<path d="M339.044 148.851L326.04 150.817L326.015 150.652C325.813 149.31 326.151 147.942 326.957 146.849C327.763 145.756 328.969 145.029 330.312 144.825L338.254 143.625L339.044 148.851Z" fill="#2F2E41"/>
<path d="M221.083 150.817H99.2075V28.9414H221.083V150.817Z" fill="white"/>
<path d="M221.083 150.817H99.2075V28.9414H221.083V150.817ZM101.008 149.016H219.283V30.7421H101.008V149.016Z" fill="#F0F0F0"/>
<path d="M202.501 81.332H124.338V84.0912H202.501V81.332Z" fill="#F9A826"/>
<path d="M202.501 88.5078H124.338V91.267H202.501V88.5078Z" fill="#F9A826"/>
<path d="M202.501 95.6836H124.338V98.4428H202.501V95.6836Z" fill="#F9A826"/>
<path d="M119.592 84.9178C120.586 84.9178 121.392 84.1116 121.392 83.1171C121.392 82.1226 120.586 81.3164 119.592 81.3164C118.597 81.3164 117.791 82.1226 117.791 83.1171C117.791 84.1116 118.597 84.9178 119.592 84.9178Z" fill="#F9A826"/>
<path d="M202.501 50.4219H124.338V53.1811H202.501V50.4219Z" fill="#F0F0F0"/>
<path d="M202.501 57.5977H124.338V60.3568H202.501V57.5977Z" fill="#F0F0F0"/>
<path d="M202.501 64.7695H124.338V67.5287H202.501V64.7695Z" fill="#F0F0F0"/>
<path d="M119.592 53.7069C120.586 53.7069 121.392 52.9007 121.392 51.9062C121.392 50.9117 120.586 50.1055 119.592 50.1055C118.597 50.1055 117.791 50.9117 117.791 51.9062C117.791 52.9007 118.597 53.7069 119.592 53.7069Z" fill="#F0F0F0"/>
<path d="M202.501 112.547H124.338V115.306H202.501V112.547Z" fill="#F0F0F0"/>
<path d="M202.501 119.723H124.338V122.482H202.501V119.723Z" fill="#F0F0F0"/>
<path d="M202.501 126.895H124.338V129.654H202.501V126.895Z" fill="#F0F0F0"/>
<path d="M119.592 115.832C120.586 115.832 121.392 115.026 121.392 114.031C121.392 113.037 120.586 112.23 119.592 112.23C118.597 112.23 117.791 113.037 117.791 114.031C117.791 115.026 118.597 115.832 119.592 115.832Z" fill="#E5E5E5"/>
<path d="M286.506 102.671H215.592C214.53 102.669 213.669 100.908 213.667 98.7332V45.9774C213.667 43.8033 214.53 42.0427 215.592 42.0391H286.506C287.568 42.0418 288.429 43.8029 288.431 45.9774V98.7327C288.429 100.907 287.567 102.669 286.506 102.671Z" fill="white"/>
<path d="M286.506 102.671H215.592C214.53 102.669 213.669 100.908 213.667 98.7332V45.9774C213.667 43.8033 214.53 42.0427 215.592 42.0391H286.506C287.568 42.0418 288.429 43.8029 288.431 45.9774V98.7327C288.429 100.907 287.567 102.669 286.506 102.671ZM215.592 43.6143C214.955 43.6143 214.438 44.673 214.437 45.9773V98.7327C214.437 100.037 214.955 101.094 215.592 101.096H286.506C287.143 101.096 287.66 100.037 287.661 98.7327V45.9774C287.661 44.673 287.143 43.6157 286.506 43.6143L215.592 43.6143Z" fill="#E6E6E6"/>
<path d="M260.651 85.0586H241.562V86.4933H260.651V85.0586Z" fill="#F9A826"/>
<path d="M263.031 88.7852H239.008V90.2199H263.031V88.7852Z" fill="#F9A826"/>
<path d="M263.513 66.9635C263.512 69.1198 262.952 71.2391 261.887 73.1143C260.823 74.9895 259.29 76.5566 257.439 77.6625C255.588 78.7684 253.481 79.3753 251.326 79.4239C249.17 79.4725 247.038 78.9612 245.139 77.9399L245.137 77.9375C243.197 76.8924 241.569 75.3518 240.418 73.4726C239.268 71.5933 238.636 69.4427 238.587 67.2397C238.538 65.0368 239.074 62.8604 240.141 60.9321C241.207 59.0039 242.766 57.3928 244.658 56.263C246.549 55.1333 248.707 54.5252 250.91 54.5008C253.113 54.4763 255.284 55.0365 257.2 56.124C259.117 57.2116 260.71 58.7877 261.819 60.6919C262.928 62.596 263.512 64.7601 263.513 66.9635Z" fill="#CACACA"/>
<path d="M251.112 66.3544C252.983 66.3544 254.5 64.8375 254.5 62.9663C254.5 61.095 252.983 59.5781 251.112 59.5781C249.241 59.5781 247.724 61.095 247.724 62.9663C247.724 64.8375 249.241 66.3544 251.112 66.3544Z" fill="white"/>
<path d="M256.898 73.3577C253.11 74.6872 248.98 74.6712 245.203 73.3124L245.2 73.3107L247.724 68.3281H254.501L256.898 73.3577Z" fill="white"/>
<path d="M201.089 121.534H254.298V98.2031H253.479V120.715H201.089V121.534Z" fill="#3F3D56"/>
<path d="M253.889 106.485C256.376 106.485 258.391 104.469 258.391 101.983C258.391 99.4962 256.376 97.4805 253.889 97.4805C251.402 97.4805 249.387 99.4962 249.387 101.983C249.387 104.469 251.402 106.485 253.889 106.485Z" fill="#3F3D56"/>
<path d="M102.7 70.359H31.7866C30.7243 70.3563 29.8632 68.5952 29.8618 66.4207V13.6649C29.8618 11.4908 30.7243 9.73018 31.7866 9.72656H102.7C103.762 9.72927 104.624 11.4904 104.625 13.6649V66.4203C104.624 68.5943 103.761 70.3563 102.7 70.359Z" fill="white"/>
<path d="M102.7 70.359H31.7866C30.7243 70.3563 29.8632 68.5952 29.8618 66.4207V13.6649C29.8618 11.4908 30.7243 9.73018 31.7866 9.72656H102.7C103.762 9.72927 104.624 11.4904 104.625 13.6649V66.4203C104.624 68.5943 103.761 70.3563 102.7 70.359ZM31.7866 11.3018C31.149 11.3018 30.6325 12.3605 30.6316 13.6648V66.4202C30.6316 67.7245 31.1489 68.7819 31.7866 68.7833H102.7C103.338 68.7833 103.854 67.725 103.855 66.4202V13.6649C103.855 12.3605 103.338 11.3032 102.7 11.3018L31.7866 11.3018Z" fill="#E6E6E6"/>
<path d="M82.9861 26.2097C79.8305 22.8594 75.4865 20.8808 70.8877 20.6992V38.3081L82.9861 26.2097Z" fill="#3F3D56"/>
<path d="M82.9861 28.4023L70.8877 40.5007H87.7955C87.8015 36.0007 86.08 31.6701 82.9861 28.4023Z" fill="#E4E4E4"/>
<path d="M87.814 41.7656C87.8147 42.8632 87.7131 43.9584 87.5107 45.037C87.4949 45.1225 87.4784 45.207 87.4609 45.2916C87.0792 47.1732 86.39 48.9791 85.4212 50.6367C85.3698 50.7256 85.3166 50.8145 85.2634 50.9017V50.9026C84.3086 52.4737 83.1146 53.8862 81.7244 55.0893C81.6556 55.1494 81.5867 55.2087 81.517 55.2671C78.5295 57.7805 74.7891 59.2259 70.8877 59.3744V41.7656H87.814Z" fill="#F0F0F0"/>
<path d="M69.1772 59.3902C69.4113 59.3902 69.6439 59.3843 69.8758 59.3752V41.7656L57.0693 54.572C60.3381 57.6713 64.6727 59.3963 69.1772 59.3902Z" fill="#CACACA"/>
<path d="M69.2013 22.875C66.8868 22.875 64.595 23.3309 62.4566 24.2166C60.3183 25.1023 58.3754 26.4005 56.7388 28.0371C55.1022 29.6737 53.804 31.6167 52.9183 33.755C52.0325 35.8933 51.5767 38.1851 51.5767 40.4996H69.9181V22.8907C69.6802 22.8812 69.4415 22.875 69.2013 22.875Z" fill="#F9A826"/>
<path d="M64.997 41.7656L61.2915 45.4711L61.1703 45.5923L61.1677 45.5949L57.9363 48.8254L57.8135 48.9483L54.3224 52.4394L54.1994 52.5623V52.5631L52.1902 54.5715C50.4456 52.9263 49.0561 50.9414 48.1074 48.7391C47.1586 46.5368 46.6706 44.1636 46.6734 41.7656H64.997Z" fill="#F9A826"/>
<path d="M124.54 89.9437H71.3311V66.6133H72.1496V89.1248H124.54V89.9437Z" fill="#3F3D56"/>
<path d="M71.7411 74.8991C74.2276 74.8991 76.2433 72.8834 76.2433 70.3968C76.2433 67.9103 74.2276 65.8945 71.7411 65.8945C69.2545 65.8945 67.2388 67.9103 67.2388 70.3968C67.2388 72.8834 69.2545 74.8991 71.7411 74.8991Z" fill="#3F3D56"/>
<path d="M324.85 68.8945L320.321 70.0811L320.622 77.4235L320.66 90.7917C320.213 91.1003 319.871 91.5371 319.679 92.0442C319.486 92.5514 319.452 93.1051 319.581 93.6321C319.71 94.159 319.996 94.6344 320.401 94.9953C320.806 95.3562 321.311 95.5857 321.849 95.6533C322.388 95.7209 322.934 95.6236 323.416 95.3741C323.897 95.1246 324.292 94.7347 324.547 94.2561C324.803 93.7774 324.907 93.2325 324.846 92.6934C324.784 92.1544 324.561 91.6466 324.205 91.2372L325.597 77.82L324.85 68.8945Z" fill="#A0616A"/>
<path d="M326.116 73.3125L319.497 71.0834L319.481 70.9836C319.472 70.9209 318.501 64.6514 318.512 60.3501C318.499 59.8709 318.591 59.3947 318.78 58.9545C318.97 58.5144 319.254 58.1209 319.611 57.8016C320.108 57.3478 320.727 57.0492 321.392 56.9423C322.056 56.8354 322.738 56.9249 323.352 57.1998C324.009 57.4705 324.573 57.9245 324.979 58.5075C325.384 59.0905 325.613 59.7779 325.638 60.4875L326.116 73.3125Z" fill="#E4E4E4"/>
<path d="M313.802 72.695L303.677 70.0742L298.997 85.8365L298.831 144.557L306.573 144.509L309.809 96.9817L330.437 140.897L338.754 139.899L320.622 92.823C320.622 92.823 321.62 84.5057 318.46 80.347L319.125 76.022L313.802 72.695Z" fill="#2F2E41"/>
<path d="M319.424 77.1852L318.657 77.1731L303.098 70.954L310.542 54.3751L314.076 55.0174L313.433 52.4439L321.241 50.5352L322.6 55.9697L324.605 57.7921C325.11 58.2515 325.47 58.8476 325.643 59.508C325.816 60.1684 325.793 60.8648 325.577 61.5124L320.959 75.3674C320.997 75.5907 320.985 75.8196 320.926 76.0382C320.866 76.2567 320.759 76.4596 320.613 76.6327C320.467 76.8058 320.285 76.9449 320.08 77.0403C319.874 77.1357 319.65 77.1852 319.424 77.1852Z" fill="#E4E4E4"/>
<path d="M307.723 64.7719L303.63 62.5L298.774 68.0153L289.563 77.7037C289.027 77.6184 288.478 77.6978 287.988 77.9313C287.499 78.1648 287.091 78.5415 286.82 79.0115C286.549 79.4815 286.428 80.0227 286.471 80.5635C286.514 81.1043 286.721 81.6191 287.063 82.04C287.405 82.4609 287.867 82.7679 288.388 82.9204C288.909 83.073 289.463 83.0639 289.979 82.8944C290.494 82.7249 290.946 82.4029 291.274 81.971C291.602 81.5392 291.792 81.0178 291.818 80.476L302.095 71.7397L307.723 64.7719Z" fill="#A0616A"/>
<path d="M305.589 68.8416L302.345 62.656L302.402 62.5732C302.439 62.5212 306.069 57.3183 309.05 54.2176C309.372 53.8622 309.767 53.5811 310.208 53.3941C310.65 53.207 311.126 53.1185 311.605 53.1347C312.278 53.1506 312.932 53.3626 313.486 53.7445C314.04 54.1265 314.471 54.662 314.725 55.2852C315.013 55.9344 315.107 56.6526 314.997 57.354C314.887 58.0554 314.578 58.7103 314.105 59.2405L305.589 68.8416Z" fill="#E4E4E4"/>
<path d="M315.466 49.526C318.892 49.526 321.67 46.7482 321.67 43.3216C321.67 39.895 318.892 37.1172 315.466 37.1172C312.039 37.1172 309.261 39.895 309.261 43.3216C309.261 46.7482 312.039 49.526 315.466 49.526Z" fill="#A0616A"/>
<path d="M307.998 39.684C309.041 37.8162 309.441 37.0359 310.786 35.9001C311.975 34.8956 313.439 34.6006 314.619 35.5524C316.015 34.9491 317.569 34.8124 319.049 35.1623C320.529 35.5123 321.857 36.3305 322.835 37.4951C323.813 38.6598 324.389 40.109 324.478 41.6273C324.567 43.1457 324.164 44.6522 323.329 45.9232C322.493 47.1941 321.27 48.1617 319.841 48.6821C318.412 49.2026 316.853 49.2481 315.396 48.8121C313.939 48.376 312.661 47.4815 311.753 46.2615C310.845 45.0416 310.354 43.5612 310.354 42.0402C310.355 41.7731 310.371 41.5063 310.402 41.241C309.376 41.0969 309.024 39.8281 307.998 39.684Z" fill="#2F2E41"/>
<path d="M33.5993 93.9252C33.8913 93.7497 34.1413 93.5122 34.3317 93.2296C34.5221 92.947 34.6482 92.6261 34.7011 92.2895C34.754 91.9529 34.7325 91.6088 34.638 91.2814C34.5435 90.954 34.3784 90.6513 34.1543 90.3946L37.1832 60L32.1256 60.3356L30.7245 90.265C30.3182 90.6701 30.0747 91.2101 30.0399 91.7827C30.0052 92.3554 30.1818 92.9209 30.5361 93.372C30.8905 93.8232 31.398 94.1287 31.9626 94.2307C32.5271 94.3326 33.1095 94.2239 33.5993 93.9252Z" fill="#FFB8B8"/>
<path d="M30.0767 58.8714L31.4027 68.9492L31.2186 75.1258L36.7812 75.6351L37.896 70.498L38.5102 56.8979C38.5566 55.8721 38.2123 54.8669 37.547 54.0849C36.8816 53.3028 35.9445 52.802 34.9245 52.6834C33.8663 52.5604 32.8022 52.8584 31.9618 53.513C31.1214 54.1677 30.572 55.1265 30.4323 56.1826L30.0767 58.8714Z" fill="#2F2E41"/>
<path d="M51.3791 147.546H54.7533L56.3584 134.531H51.3784L51.3791 147.546Z" fill="#FFB7B7"/>
<path d="M50.5186 146.446L57.1637 146.445C58.2868 146.445 59.3642 146.892 60.1584 147.686C60.9526 148.48 61.3987 149.557 61.3988 150.68V150.818L50.5188 150.818L50.5186 146.446Z" fill="#2F2E41"/>
<path d="M23.5173 147.546H26.8915L28.4966 134.531H23.5166L23.5173 147.546Z" fill="#FFB7B7"/>
<path d="M22.6567 146.446L29.3019 146.445C30.425 146.445 31.5024 146.892 32.2966 147.686C33.0907 148.48 33.5369 149.557 33.537 150.68V150.818L22.6569 150.818L22.6567 146.446Z" fill="#2F2E41"/>
<path d="M36.6375 47.8971C40.6779 47.8971 43.9533 44.6218 43.9533 40.5814C43.9533 36.541 40.6779 33.2656 36.6375 33.2656C32.5972 33.2656 29.3218 36.541 29.3218 40.5814C29.3218 44.6218 32.5972 47.8971 36.6375 47.8971Z" fill="#FFB8B8"/>
<path d="M37.5835 50.8672L32.5066 51.4474C31.272 53.1983 30.4715 55.2176 30.1711 57.3388C29.8708 59.4599 30.0791 61.6221 30.7791 63.6469L34.6099 74.7289C34.6099 74.7289 29.2921 85.3898 29.2921 95.2878C29.2921 105.186 19.1646 140.517 19.1646 140.517L33.42 142.004L39.6401 104.366L48.2118 141.852L57.9971 140.259L52.6076 91.1112L49.0462 74.9344L48.8945 67.0455C48.8945 67.0455 50.4088 61.1259 46.6188 57.336L41.9917 50.8883L37.5835 50.8672Z" fill="#2F2E41"/>
<path d="M73.3739 76.928C73.359 76.5549 73.2626 76.1896 73.0913 75.8579C72.92 75.5262 72.6781 75.236 72.3826 75.0079C72.087 74.7797 71.745 74.6192 71.3807 74.5375C71.0164 74.4559 70.6387 74.4551 70.274 74.5352L42.6664 55.6172L40.3252 60.6533L68.3432 77.7623C68.5184 78.366 68.9089 78.8844 69.4408 79.2193C69.9727 79.5543 70.609 79.6825 71.2291 79.5796C71.8492 79.4768 72.41 79.15 72.8053 78.6613C73.2006 78.1726 73.4029 77.5559 73.3739 76.928Z" fill="#FFB8B8"/>
<path d="M37.8423 61.8487L48.2234 65.8824L54.0608 69.3122L57.4798 64.236L53.1313 60.4593L40.388 52.7064C39.4268 52.1217 38.2797 51.923 37.1779 52.1504C36.0761 52.3778 35.1014 53.0144 34.4503 53.9319C33.7748 54.8838 33.5006 56.0631 33.6869 57.2154C33.8733 58.3676 34.5052 59.4004 35.4463 60.0909L37.8423 61.8487Z" fill="#2F2E41"/>
<path d="M45.1663 37.9672H34.416V33.2812C36.7756 32.3438 39.0845 31.5466 40.4803 33.2812C41.7231 33.2812 42.915 33.7749 43.7938 34.6537C44.6726 35.5325 45.1663 36.7244 45.1663 37.9672Z" fill="#2F2E41"/>
<path d="M36.3344 32.8087C29.9078 32.8371 28.1089 40.8643 28.1089 45.4089C28.1089 47.9433 29.2551 48.8498 31.0562 49.1565L31.6923 45.7641L33.1821 49.3025C33.6881 49.305 34.2196 49.2953 34.7706 49.285L35.2757 48.2449L36.4022 49.2664C40.9136 49.2731 47.4695 48.8702 44.5599 45.4089C40.662 40.7719 41.9361 32.7839 36.3344 32.8087Z" fill="#2F2E41"/>
<path d="M330.913 58.0397C330.629 56.964 330.586 55.8387 330.789 54.7446C331.089 52.6318 331.763 50.5934 332.38 48.5504C332.996 46.5074 333.562 44.4242 333.633 42.2913C333.704 40.1584 333.242 37.9473 331.97 36.2337C330.698 34.52 328.53 33.397 326.421 33.7192C324.405 34.0271 322.645 35.8452 322.634 37.8625C322.274 38.5154 322.74 39.4069 323.403 39.7942C324.1 40.2004 324.939 40.2543 325.711 40.4852C326.469 40.7304 327.168 41.1295 327.765 41.6575C328.361 42.1855 328.842 42.8311 329.178 43.5537C329.84 45.0126 330.016 46.6456 329.681 48.2122C329.376 49.7304 328.677 51.1352 328.153 52.592C327.628 54.0488 327.277 55.6482 327.699 57.138C328.049 58.2383 328.784 59.1752 329.77 59.7759C330.756 60.3767 331.926 60.6009 333.064 60.4072C332.545 60.2095 332.079 59.8921 331.705 59.4807C331.332 59.0694 331.06 58.5756 330.913 58.0397Z" fill="#2F2E41"/>
<path d="M357.559 150.999H0.358995C0.263784 150.999 0.172472 150.961 0.105147 150.894C0.0378223 150.827 0 150.735 0 150.64C0 150.545 0.0378223 150.454 0.105147 150.386C0.172472 150.319 0.263784 150.281 0.358995 150.281H357.559C357.654 150.281 357.746 150.319 357.813 150.386C357.88 150.454 357.918 150.545 357.918 150.64C357.918 150.735 357.88 150.827 357.813 150.894C357.746 150.961 357.654 150.999 357.559 150.999Z" fill="#CACACA"/>
<path d="M276.054 133.549C275.357 127.947 271.886 122.428 266.544 120.605C268.651 126.371 268.65 132.695 266.543 138.46C265.722 140.681 264.578 143.065 265.35 145.303C265.83 146.695 267.005 147.761 268.319 148.427C269.633 149.093 271.091 149.41 272.531 149.721L272.814 149.956C275.1 144.795 276.75 139.15 276.054 133.549Z" fill="#F0F0F0"/>
<path d="M266.492 120.713C269.603 124.199 271.536 128.576 272.018 133.223C272.139 134.222 272.102 135.233 271.909 136.22C271.689 137.176 271.218 138.055 270.543 138.767C269.928 139.443 269.22 140.063 268.78 140.877C268.56 141.297 268.432 141.759 268.404 142.232C268.376 142.705 268.448 143.178 268.615 143.622C269.004 144.737 269.77 145.646 270.551 146.508C271.417 147.466 272.332 148.448 272.7 149.718C272.745 149.872 272.981 149.793 272.936 149.64C272.296 147.43 270.151 146.175 269.128 144.185C268.651 143.256 268.45 142.178 268.898 141.198C269.289 140.341 270.018 139.7 270.647 139.021C271.315 138.336 271.806 137.499 272.075 136.581C272.319 135.607 272.394 134.598 272.299 133.599C272.121 131.345 271.589 129.134 270.724 127.045C269.75 124.656 268.374 122.452 266.656 120.526C266.55 120.407 266.386 120.595 266.492 120.713Z" fill="white"/>
<path d="M271.951 131.717C272.719 131.53 273.397 131.076 273.862 130.436C274.327 129.796 274.549 129.012 274.489 128.223C274.477 128.064 274.228 128.076 274.241 128.236C274.298 128.97 274.091 129.701 273.656 130.296C273.222 130.891 272.59 131.311 271.873 131.48C271.717 131.517 271.796 131.753 271.951 131.717Z" fill="white"/>
<path d="M270.9 138.461C269.512 137.632 268.487 136.31 268.03 134.759C267.985 134.605 267.749 134.684 267.794 134.837C268.272 136.45 269.342 137.824 270.789 138.683C270.926 138.765 271.038 138.542 270.9 138.461Z" fill="white"/>
<path d="M269.519 124.887C269.236 125.021 268.925 125.083 268.613 125.067C268.301 125.051 267.997 124.958 267.73 124.796C267.593 124.712 267.482 124.935 267.618 125.018C267.914 125.196 268.249 125.298 268.594 125.316C268.939 125.335 269.284 125.268 269.597 125.123C269.628 125.112 269.653 125.089 269.668 125.06C269.682 125.031 269.685 124.997 269.676 124.966C269.666 124.934 269.643 124.909 269.614 124.894C269.584 124.879 269.55 124.876 269.519 124.887Z" fill="white"/>
<path d="M250.262 130.607C250.346 130.662 250.43 130.716 250.514 130.773C251.639 131.513 252.702 132.343 253.692 133.255C253.77 133.324 253.848 133.396 253.923 133.467C256.287 135.689 258.217 138.331 259.615 141.259C260.171 142.424 260.637 143.63 261.01 144.866C261.524 146.573 261.946 148.464 262.964 149.861C263.069 150.007 263.182 150.148 263.304 150.28H272.507C272.528 150.27 272.549 150.262 272.57 150.251L272.937 150.268C272.923 150.203 272.906 150.136 272.891 150.07C272.883 150.033 272.872 149.995 272.864 149.957C272.858 149.932 272.851 149.907 272.847 149.884C272.845 149.875 272.843 149.867 272.841 149.861C272.837 149.837 272.83 149.816 272.826 149.795C272.734 149.42 272.638 149.044 272.54 148.668C272.54 148.666 272.54 148.666 272.538 148.664C271.819 145.793 270.762 143.017 269.389 140.396C269.347 140.318 269.305 140.238 269.259 140.16C268.623 139 267.893 137.893 267.077 136.851C266.629 136.283 266.151 135.737 265.647 135.216C264.343 133.873 262.835 132.744 261.18 131.869C257.879 130.126 254.058 129.459 250.53 130.523C250.44 130.551 250.352 130.578 250.262 130.607Z" fill="#F0F0F0"/>
<path d="M250.282 130.723C254.864 131.634 259.044 133.964 262.226 137.385C262.924 138.109 263.504 138.939 263.943 139.844C264.343 140.739 264.496 141.725 264.386 142.699C264.302 143.609 264.11 144.531 264.249 145.446C264.327 145.913 264.503 146.359 264.765 146.754C265.027 147.148 265.369 147.483 265.77 147.736C266.752 148.392 267.911 148.657 269.053 148.876C270.322 149.119 271.643 149.352 272.702 150.144C272.83 150.24 272.972 150.035 272.844 149.94C271.002 148.561 268.533 148.85 266.518 147.877C265.578 147.423 264.769 146.683 264.536 145.631C264.332 144.711 264.529 143.76 264.623 142.839C264.744 141.89 264.631 140.926 264.294 140.031C263.901 139.107 263.355 138.256 262.677 137.516C261.178 135.824 259.422 134.378 257.474 133.231C255.257 131.91 252.831 130.978 250.301 130.475C250.144 130.444 250.126 130.693 250.282 130.723Z" fill="white"/>
<path d="M261.266 136.223C261.768 135.612 262.035 134.842 262.021 134.051C262.007 133.26 261.713 132.499 261.19 131.906C261.084 131.786 260.893 131.945 260.999 132.065C261.487 132.617 261.761 133.325 261.773 134.062C261.784 134.798 261.532 135.515 261.062 136.082C260.96 136.205 261.165 136.346 261.266 136.223Z" fill="white"/>
<path d="M264.49 142.249C262.883 142.423 261.268 141.984 259.97 141.021C259.841 140.925 259.7 141.13 259.828 141.225C261.181 142.225 262.862 142.678 264.535 142.493C264.694 142.476 264.649 142.231 264.49 142.249Z" fill="white"/>
<path d="M255.215 132.241C255.071 132.518 254.859 132.755 254.6 132.93C254.342 133.106 254.043 133.214 253.732 133.245C253.573 133.261 253.618 133.506 253.777 133.49C254.12 133.454 254.45 133.334 254.736 133.141C255.022 132.948 255.257 132.687 255.42 132.382C255.438 132.355 255.444 132.322 255.438 132.29C255.432 132.258 255.415 132.229 255.388 132.209C255.361 132.191 255.328 132.184 255.295 132.19C255.263 132.195 255.234 132.214 255.215 132.241Z" fill="white"/>
<path d="M68.9614 133.549C69.658 127.947 73.1294 122.428 78.4714 120.605C76.3646 126.371 76.3651 132.695 78.4726 138.46C79.2935 140.681 80.4377 143.065 79.6656 145.303C79.1851 146.695 78.0099 147.761 76.6962 148.427C75.3824 149.093 73.9244 149.41 72.4847 149.721L72.2013 149.956C69.9157 144.795 68.2648 139.15 68.9614 133.549Z" fill="#F0F0F0"/>
<path d="M78.5241 120.713C75.4132 124.199 73.4797 128.576 72.9982 133.223C72.8768 134.222 72.9135 135.233 73.1071 136.22C73.3267 137.176 73.7982 138.055 74.4725 138.767C75.088 139.443 75.7958 140.063 76.2362 140.877C76.4554 141.297 76.5834 141.759 76.6117 142.232C76.64 142.705 76.568 143.178 76.4004 143.622C76.0116 144.737 75.2453 145.646 74.4651 146.508C73.5988 147.466 72.6838 148.448 72.3155 149.718C72.2709 149.872 72.0347 149.793 72.0793 149.64C72.72 147.43 74.8649 146.175 75.8879 144.185C76.3652 143.256 76.5655 142.178 76.1181 141.198C75.7268 140.341 74.9974 139.7 74.3683 139.021C73.7003 138.336 73.21 137.499 72.9404 136.581C72.6972 135.607 72.6216 134.598 72.7167 133.599C72.895 131.345 73.4265 129.134 74.2917 127.045C75.266 124.656 76.6418 122.452 78.3595 120.526C78.4659 120.407 78.6298 120.595 78.5241 120.713Z" fill="white"/>
<path d="M73.0648 131.717C72.296 131.53 71.6187 131.076 71.1537 130.436C70.6887 129.796 70.4663 129.012 70.5262 128.223C70.5389 128.064 70.7874 128.076 70.7747 128.236C70.7176 128.97 70.9248 129.701 71.359 130.296C71.7933 130.891 72.4259 131.311 73.1428 131.48C73.2985 131.517 73.2196 131.753 73.0648 131.717Z" fill="white"/>
<path d="M74.114 138.461C75.5024 137.632 76.5273 136.31 76.9844 134.759C77.0296 134.605 77.2657 134.684 77.2206 134.837C76.7419 136.45 75.6725 137.824 74.2258 138.683C74.0879 138.765 73.9768 138.542 74.114 138.461Z" fill="white"/>
<path d="M75.4973 124.887C75.7797 125.021 76.091 125.083 76.4033 125.067C76.7155 125.051 77.0189 124.958 77.2863 124.796C77.4231 124.712 77.5341 124.935 77.3982 125.018C77.102 125.196 76.7667 125.298 76.4218 125.316C76.0768 125.335 75.7327 125.268 75.4193 125.123C75.3886 125.112 75.3634 125.089 75.3487 125.06C75.334 125.031 75.331 124.997 75.3402 124.966C75.3507 124.934 75.3731 124.909 75.4025 124.894C75.4319 124.879 75.466 124.876 75.4973 124.887Z" fill="white"/>
<path d="M94.7537 130.607C94.6697 130.662 94.5858 130.716 94.5017 130.773C93.3767 131.513 92.3136 132.343 91.323 133.255C91.2453 133.324 91.1676 133.396 91.092 133.467C88.7288 135.689 86.7988 138.331 85.4001 141.259C84.8446 142.424 84.3785 143.63 84.0059 144.866C83.4915 146.573 83.0695 148.464 82.0512 149.861C81.9466 150.007 81.833 150.148 81.711 150.28H72.5085C72.4876 150.27 72.4666 150.262 72.4456 150.251L72.0781 150.268C72.0929 150.203 72.1096 150.136 72.1244 150.07C72.1328 150.033 72.1432 149.995 72.1516 149.957C72.1579 149.932 72.1643 149.907 72.1685 149.884C72.1705 149.875 72.1727 149.867 72.1747 149.861C72.1789 149.837 72.1853 149.816 72.1895 149.795C72.2819 149.42 72.377 149.044 72.475 148.668C72.475 148.666 72.475 148.666 72.477 148.664C73.1962 145.793 74.2534 143.017 75.6264 140.396C75.6685 140.318 75.7104 140.238 75.7566 140.16C76.3924 139 77.122 137.893 77.9381 136.851C78.3868 136.283 78.8641 135.737 79.368 135.216C80.6726 133.873 82.1803 132.744 83.8359 131.869C87.1365 130.126 90.9576 129.459 94.485 130.523C94.5752 130.551 94.6635 130.578 94.7537 130.607Z" fill="#F0F0F0"/>
<path d="M94.7337 130.723C90.1512 131.634 85.972 133.964 82.7896 137.385C82.0915 138.109 81.5118 138.939 81.0721 139.844C80.6721 140.739 80.5192 141.725 80.6292 142.699C80.7134 143.609 80.9051 144.531 80.7666 145.446C80.6888 145.913 80.513 146.359 80.2508 146.754C79.9887 147.148 79.6461 147.483 79.2455 147.736C78.2637 148.392 77.1046 148.657 75.9622 148.876C74.6937 149.119 73.3723 149.352 72.3136 150.144C72.1854 150.24 72.0439 150.035 72.172 149.94C74.0139 148.561 76.4822 148.85 78.4971 147.877C79.4373 147.423 80.2464 146.683 80.4793 145.631C80.683 144.711 80.4862 143.76 80.3929 142.839C80.2717 141.89 80.3846 140.926 80.7219 140.031C81.1142 139.107 81.6609 138.256 82.3386 137.516C83.8378 135.824 85.5936 134.378 87.5419 133.231C89.7581 131.91 92.184 130.978 94.7146 130.475C94.8712 130.444 94.8893 130.693 94.7337 130.723Z" fill="white"/>
<path d="M83.7487 136.223C83.2473 135.612 82.9797 134.842 82.9937 134.051C83.0077 133.26 83.3024 132.499 83.8251 131.906C83.9313 131.786 84.1224 131.945 84.0161 132.065C83.5283 132.617 83.2538 133.325 83.2423 134.062C83.2308 134.798 83.4829 135.515 83.9532 136.082C84.0553 136.205 83.8502 136.346 83.7487 136.223Z" fill="white"/>
<path d="M80.5251 142.249C82.1328 142.423 83.747 141.984 85.0458 141.021C85.1745 140.925 85.316 141.13 85.1875 141.225C83.834 142.225 82.1533 142.678 80.4807 142.493C80.3213 142.476 80.3666 142.231 80.5251 142.249Z" fill="white"/>
<path d="M89.7998 132.241C89.9445 132.518 90.1557 132.755 90.4146 132.93C90.6735 133.106 90.9718 133.214 91.2829 133.245C91.4424 133.261 91.3969 133.506 91.2384 133.49C90.8949 133.454 90.5656 133.334 90.2791 133.141C89.9927 132.948 89.7579 132.687 89.5953 132.382C89.5776 132.355 89.5709 132.322 89.5768 132.29C89.5826 132.258 89.6005 132.229 89.6267 132.209C89.6539 132.191 89.6873 132.184 89.7197 132.19C89.7521 132.195 89.7809 132.214 89.7998 132.241Z" fill="white"/>
</g>
<defs>
<clipPath id="clip0_818_55935">
<rect width="357.918" height="151" fill="white"/>
</clipPath>
</defs>
</svg>
