<svg width="234" height="221" viewBox="0 0 234 221" fill="none" xmlns="http://www.w3.org/2000/svg">
<g clip-path="url(#clip0_620_41719)">
<path d="M233.798 219.832H76.0273V220.512H233.798V219.832Z" fill="#3F3D56"/>
<path d="M204.354 104.122C204.658 104.478 204.883 104.895 205.016 105.345C205.148 105.794 205.185 106.266 205.123 106.731C205.062 107.195 204.903 107.642 204.658 108.041C204.413 108.44 204.086 108.784 203.7 109.049L187.372 120.259L180.182 125.052C179.774 125.325 179.279 125.435 178.793 125.363C178.308 125.29 177.867 125.039 177.556 124.66V124.66C177.375 124.438 177.244 124.18 177.172 123.903C177.1 123.626 177.09 123.336 177.141 123.055C177.192 122.773 177.304 122.506 177.468 122.272C177.632 122.038 177.846 121.842 178.093 121.698L185.057 117.655L197.211 106.08L189.398 97.6882L195.185 93.3477L204.354 104.122Z" fill="#A0616A"/>
<path d="M165.958 209.676H161.964L159.592 176.688L169.72 176.398L165.958 209.676Z" fill="#A0616A"/>
<path d="M166.248 220.38C165.183 220.866 164.291 216.928 163.392 217.811C160.88 220.28 157.032 220.818 153.678 219.74L154.852 219.727C154.649 219.662 154.462 219.556 154.302 219.417C154.141 219.277 154.011 219.107 153.918 218.915C153.826 218.724 153.773 218.516 153.763 218.303C153.754 218.091 153.787 217.879 153.862 217.68V217.68C153.951 217.442 154.097 217.229 154.287 217.059C154.477 216.89 154.705 216.769 154.952 216.708L157.624 216.039L161.82 208.66L166.103 208.371C167.058 209.589 167.724 211.007 168.052 212.519C168.38 214.031 168.361 215.598 167.996 217.101C167.607 218.688 167.007 220.034 166.248 220.38Z" fill="#2F2E41"/>
<path d="M192.552 209.674H188.558L186.186 176.686L196.603 174.66L192.552 209.674Z" fill="#A0616A"/>
<path d="M192.841 220.384C191.776 220.87 190.884 216.932 189.986 217.815C187.473 220.284 183.625 220.822 180.271 219.744L181.445 219.731C181.243 219.666 181.056 219.56 180.895 219.421C180.735 219.281 180.605 219.111 180.512 218.919C180.419 218.728 180.367 218.52 180.357 218.308C180.347 218.095 180.381 217.883 180.455 217.684C180.545 217.446 180.69 217.233 180.88 217.064C181.07 216.894 181.298 216.773 181.545 216.712L184.217 216.044L188.413 208.665L192.986 208.086L193.102 208.275C193.986 209.7 194.556 211.296 194.773 212.959C194.991 214.621 194.852 216.311 194.365 217.916C193.985 219.134 193.467 220.099 192.841 220.384Z" fill="#2F2E41"/>
<path d="M197.081 94.0946C193.408 94.6057 190.865 96.6172 189.829 100.63L183.078 88.1644C182.678 87.3722 182.576 86.4623 182.792 85.6013C183.008 84.7404 183.527 83.9862 184.254 83.4768C185.026 82.9362 185.975 82.7111 186.907 82.8475C187.839 82.984 188.684 83.4717 189.268 84.2107L197.081 94.0946Z" fill="#FFB163"/>
<path d="M204.155 173.215C187.74 180.478 170.94 181.372 153.805 176.687C160.062 152.418 167.451 130.473 167.405 112.447L184.189 111L186.773 115.097C192.904 124.817 197.136 135.611 199.245 146.908L204.155 173.215Z" fill="#2F2E41"/>
<path d="M176.665 75.1162C181.46 75.1162 185.346 71.2295 185.346 66.4351C185.346 61.6406 181.46 57.7539 176.665 57.7539C171.871 57.7539 167.984 61.6406 167.984 66.4351C167.984 71.2295 171.871 75.1162 176.665 75.1162Z" fill="#A0616A"/>
<path d="M186.214 81.7727L175.508 82.3514L173.771 72.8021L182.453 71.3555L186.214 81.7727Z" fill="#A0616A"/>
<path d="M185.057 112.446L173.327 112.776L167.405 113.603C164.498 104.001 162.051 94.4208 167.984 86.4023L174.929 79.4573L185.346 79.168L185.484 79.2468C187.139 80.1947 188.421 81.6778 189.119 83.4519C189.818 85.2259 189.892 87.185 189.328 89.0064C186.743 97.4072 185.082 105.34 185.057 112.446Z" fill="#FFB163"/>
<path d="M167.116 139.356L166.388 149.3C166.349 149.833 166.119 150.333 165.74 150.71C165.362 151.086 164.86 151.313 164.327 151.349V151.349C164.02 151.369 163.712 151.325 163.422 151.22C163.133 151.115 162.869 150.951 162.647 150.738C162.425 150.525 162.249 150.268 162.132 149.984C162.015 149.699 161.958 149.393 161.965 149.086L162.197 139.356L169.431 111.866L169.72 95.0823L177.823 94.793L177.244 114.181L167.116 139.356Z" fill="#A0616A"/>
<path d="M178.691 96.2408C175.255 94.8439 172.047 95.3118 169.141 98.2664L169.539 84.0957C169.59 83.2095 169.957 82.3711 170.576 81.7341C171.194 81.097 172.021 80.7041 172.905 80.6272V80.6272C173.843 80.5456 174.778 80.8259 175.516 81.4108C176.255 81.9956 176.742 82.8408 176.877 83.773L178.691 96.2408Z" fill="#FFB163"/>
<path d="M195.04 105.069H168.418C174.629 88.6236 176.631 73.3245 168.418 60.2164C168.559 56.2794 173.609 52.8663 177.53 53.2434C182.162 53.6887 188.385 57.0921 189.253 61.6633L195.04 105.069Z" fill="#2F2E41"/>
<path d="M110.196 52.5179H108.982V19.2529C108.982 16.7246 108.484 14.221 107.517 11.8851C106.549 9.54924 105.131 7.42681 103.343 5.63902C101.555 3.85122 99.4329 2.43307 97.097 1.46552C94.7611 0.497976 92.2575 -7.5767e-06 89.7292 0H19.2529C16.7246 -5.58281e-06 14.221 0.497982 11.8851 1.46553C9.54927 2.43307 7.42684 3.85123 5.63904 5.63902C3.85124 7.42682 2.43308 9.54925 1.46553 11.8851C0.497986 14.221 -2.79144e-06 16.7246 0 19.2529V201.747C-1.99388e-06 204.275 0.497986 206.779 1.46553 209.115C2.43308 211.451 3.85124 213.573 5.63904 215.361C7.42684 217.149 9.54927 218.567 11.8851 219.534C14.221 220.502 16.7246 221 19.2529 221H89.7292C92.2575 221 94.7611 220.502 97.097 219.534C99.4329 218.567 101.555 217.149 103.343 215.361C105.131 213.573 106.549 211.451 107.517 209.115C108.484 206.779 108.982 204.275 108.982 201.747V76.1964H110.196V52.5179Z" fill="#3F3D56"/>
<path d="M90.5061 5.00781H81.3066C81.7296 6.04502 81.8911 7.17035 81.7768 8.28468C81.6625 9.399 81.2759 10.4681 80.6511 11.3978C80.0263 12.3276 79.1824 13.0894 78.1939 13.6161C77.2053 14.1429 76.1023 14.4184 74.9821 14.4185H34.6071C33.487 14.4184 32.384 14.1429 31.3954 13.6161C30.4068 13.0894 29.563 12.3276 28.9382 11.3978C28.3133 10.4681 27.9267 9.399 27.8124 8.28468C27.6981 7.17036 27.8596 6.04502 28.2827 5.00781H19.6903C17.8022 5.00781 15.9326 5.3797 14.1882 6.10225C12.4438 6.8248 10.8588 7.88386 9.52368 9.21897C8.18857 10.5541 7.12951 12.1391 6.40695 13.8835C5.6844 15.6279 5.3125 17.4975 5.3125 19.3856V201.612C5.3125 203.5 5.68439 205.37 6.40695 207.114C7.1295 208.859 8.18857 210.444 9.52367 211.779C10.8588 213.114 12.4438 214.173 14.1882 214.895C15.9326 215.618 17.8022 215.99 19.6903 215.99H90.5061C92.3942 215.99 94.2638 215.618 96.0082 214.895C97.7526 214.173 99.3377 213.114 100.673 211.779C102.008 210.444 103.067 208.859 103.789 207.114C104.512 205.37 104.884 203.5 104.884 201.612V19.3856C104.884 15.5724 103.369 11.9153 100.673 9.21896C97.9764 6.5226 94.3193 5.00781 90.5061 5.00781V5.00781Z" fill="white"/>
<path d="M92.4489 33.4727H17.7476V97.5458H92.4489V33.4727Z" fill="#E6E6E6"/>
<path d="M39.9149 110.908C42.9337 110.908 45.3809 108.461 45.3809 105.443C45.3809 102.424 42.9337 99.9766 39.9149 99.9766C36.8962 99.9766 34.449 102.424 34.449 105.443C34.449 108.461 36.8962 110.908 39.9149 110.908Z" fill="#FFB163"/>
<path d="M42.6481 104.988H40.3706V102.711H39.4596V104.988H37.1821V105.899H39.4596V108.177H40.3706V105.899H42.6481V104.988Z" fill="white"/>
<path d="M68.7633 110.908C71.7821 110.908 74.2293 108.461 74.2293 105.443C74.2293 102.424 71.7821 99.9766 68.7633 99.9766C65.7446 99.9766 63.2974 102.424 63.2974 105.443C63.2974 108.461 65.7446 110.908 68.7633 110.908Z" fill="#FFB163"/>
<path d="M71.4961 105.899V104.988H66.0301V105.899H71.4961Z" fill="white"/>
<path d="M57.8842 41.4648H51.9809C51.7733 41.4648 51.5743 41.5473 51.4275 41.6941C51.2807 41.8409 51.1982 42.0399 51.1982 42.2475V44.8386C51.1982 45.0462 51.2807 45.2453 51.4275 45.3921C51.5743 45.5388 51.7733 45.6213 51.9809 45.6213H52.9592V49.5037H56.9059V45.6213H57.8842C58.0918 45.6213 58.2908 45.5388 58.4376 45.3921C58.5844 45.2453 58.6668 45.0462 58.6668 44.8386V42.2475C58.6668 42.0399 58.5844 41.8409 58.4376 41.6941C58.2908 41.5473 58.0918 41.4648 57.8842 41.4648Z" fill="#FFB163"/>
<path d="M63.7972 65.1782C60.1818 59.8879 58.3336 53.5891 58.5172 47.1841C58.5205 47.0364 58.4725 46.892 58.3815 46.7756C58.2904 46.6591 58.1618 46.5778 58.0176 46.5454V45.4258H51.7829V46.5298H51.697C51.613 46.53 51.5298 46.5466 51.4523 46.5789C51.3747 46.6111 51.3042 46.6583 51.2449 46.7178C51.1856 46.7773 51.1385 46.8479 51.1065 46.9255C51.0744 47.0032 51.058 47.0864 51.0581 47.1704C51.0581 47.1859 51.0587 47.2015 51.0599 47.217C51.551 54.0638 49.8925 60.204 46.0841 65.6374C45.865 65.9496 45.753 66.3245 45.765 66.7058L46.4468 87.7936C46.4632 88.264 46.6606 88.7098 46.9978 89.0381C47.335 89.3664 47.786 89.5518 48.2567 89.5555H62.3585C62.8345 89.5517 63.2902 89.3621 63.6285 89.0272C63.9667 88.6922 64.1609 88.2385 64.1695 87.7625L64.4322 67.288C64.44 66.5365 64.2185 65.8005 63.7972 65.1782V65.1782Z" fill="#3F3D56"/>
<path opacity="0.2" d="M56.6535 42.3086C56.6535 42.7564 56.4756 43.1859 56.1589 43.5026C55.8422 43.8192 55.4128 43.9971 54.9649 43.9971C54.5171 43.9971 54.0876 43.8192 53.7709 43.5026C53.4543 43.1859 53.2764 42.7564 53.2764 42.3086" fill="black"/>
<path d="M61.5648 72.1821H59.8572C59.6941 71.1242 59.1579 70.1596 58.3454 69.4627C57.533 68.7659 56.498 68.3828 55.4276 68.3828C54.3572 68.3828 53.3222 68.7659 52.5097 69.4627C51.6972 70.1596 51.161 71.1242 50.998 72.1821H49.2902C49.1085 72.1821 48.929 72.2214 48.7639 72.2972C48.5988 72.3731 48.4521 72.4838 48.3338 72.6217C48.2155 72.7596 48.1284 72.9215 48.0785 73.0962C48.0286 73.2709 48.0171 73.4543 48.0447 73.6339L49.8995 85.6905H60.5504L62.8034 73.6745C62.8375 73.4925 62.8311 73.3052 62.7847 73.126C62.7382 72.9468 62.6528 72.78 62.5345 72.6375C62.4163 72.495 62.2681 72.3803 62.1005 72.3016C61.9329 72.2229 61.75 72.1821 61.5648 72.1821V72.1821Z" fill="#FFB163"/>
<path d="M92.4489 123.664H17.7476V187.737H92.4489V123.664Z" fill="#E6E6E6"/>
<path d="M39.9149 201.096C42.9337 201.096 45.3809 198.649 45.3809 195.63C45.3809 192.611 42.9337 190.164 39.9149 190.164C36.8962 190.164 34.449 192.611 34.449 195.63C34.449 198.649 36.8962 201.096 39.9149 201.096Z" fill="#FFB163"/>
<path d="M42.6481 195.176H40.3706V192.898H39.4596V195.176H37.1821V196.087H39.4596V198.364H40.3706V196.087H42.6481V195.176Z" fill="white"/>
<path d="M68.7633 201.096C71.7821 201.096 74.2293 198.649 74.2293 195.63C74.2293 192.611 71.7821 190.164 68.7633 190.164C65.7446 190.164 63.2974 192.611 63.2974 195.63C63.2974 198.649 65.7446 201.096 68.7633 201.096Z" fill="#FFB163"/>
<path d="M71.4961 196.087V195.176H66.0301V196.087H71.4961Z" fill="white"/>
<path d="M69.8042 169.18L69.8454 169.18C71.2519 169.192 72.6292 168.78 73.7978 167.997C74.9664 167.214 75.8719 166.098 76.3963 164.792C78.0487 160.614 78.4356 156.042 77.5088 151.646C76.582 147.25 74.3825 143.223 71.1841 140.067C67.9857 136.912 63.9297 134.767 59.5212 133.9C55.1127 133.032 50.5464 133.481 46.391 135.189C42.2356 136.898 38.6745 139.791 36.1513 143.509C33.6281 147.227 32.2542 151.604 32.2006 156.097C32.147 160.59 33.4162 164.999 35.8501 168.776C38.284 172.552 41.775 175.53 45.8885 177.337C47.167 177.903 48.5867 178.069 49.9615 177.814C51.3363 177.559 52.6019 176.895 53.5925 175.908C55.717 173.773 58.2434 172.078 61.0258 170.924C63.8082 169.769 66.7917 169.177 69.8042 169.18V169.18Z" fill="white"/>
<path d="M58.0391 162.247C62.2161 162.247 65.6022 158.861 65.6022 154.684C65.6022 150.507 62.2161 147.121 58.0391 147.121C53.8622 147.121 50.4761 150.507 50.4761 154.684C50.4761 158.861 53.8622 162.247 58.0391 162.247Z" fill="#F9A825"/>
</g>
<defs>
<clipPath id="clip0_620_41719">
<rect width="233.798" height="221" fill="white"/>
</clipPath>
</defs>
</svg>
