<svg width="278" height="239" viewBox="0 0 278 239" fill="none" xmlns="http://www.w3.org/2000/svg">
<g clip-path="url(#clip0_815_53237)">
<path d="M20.8752 218.917C22.4771 219.48 24.197 219.621 25.8693 219.327C27.5415 219.032 29.1097 218.312 30.4228 217.235C33.7668 214.429 34.8155 209.806 35.6684 205.524L38.1917 192.859L32.909 196.497C29.1097 199.113 25.2251 201.813 22.5947 205.602C19.9644 209.39 18.8169 214.563 20.9296 218.663" fill="#E6E6E6"/>
<path d="M21.6908 235.132C21.0259 230.287 20.3418 225.381 20.8093 220.484C21.2237 216.136 22.5503 211.89 25.2512 208.407C26.6848 206.562 28.4292 204.981 30.4061 203.735C30.9214 203.41 31.3959 204.227 30.8827 204.551C27.4622 206.712 24.8164 209.904 23.327 213.667C21.682 217.85 21.4179 222.411 21.7012 226.856C21.8725 229.543 22.2364 232.213 22.6019 234.88C22.6308 235.001 22.6128 235.128 22.5515 235.236C22.4903 235.343 22.3904 235.424 22.272 235.461C22.1513 235.493 22.0226 235.477 21.9138 235.415C21.8051 235.353 21.7251 235.251 21.6912 235.131L21.6908 235.132Z" fill="#F2F2F2"/>
<path d="M26.4771 227.36C27.164 228.404 28.1083 229.254 29.2191 229.828C30.3298 230.401 31.5696 230.679 32.8188 230.634C36.03 230.482 38.706 228.242 41.1147 226.114L48.2407 219.822L43.5247 219.597C40.1331 219.434 36.654 219.282 33.4236 220.329C30.1932 221.376 27.214 223.892 26.6234 227.236" fill="#E6E6E6"/>
<path d="M19.8116 237.918C23.0127 232.254 26.7254 225.959 33.36 223.947C35.2046 223.39 37.1387 223.19 39.0583 223.359C39.6634 223.411 39.5123 224.344 38.9084 224.292C35.6907 224.025 32.4792 224.874 29.8145 226.698C27.2503 228.443 25.2537 230.87 23.564 233.443C22.5289 235.019 21.6017 236.662 20.6746 238.303C20.3783 238.827 19.5119 238.449 19.8116 237.918Z" fill="#F2F2F2"/>
<path d="M275.949 167.996H99.4668C98.923 167.995 98.4016 167.779 98.0171 167.395C97.6326 167.01 97.4162 166.489 97.4155 165.945V2.05123C97.4162 1.50743 97.6326 0.986103 98.0171 0.601577C98.4016 0.217051 98.923 0.000710885 99.4668 0H275.949C276.492 0.000710885 277.014 0.217051 277.398 0.601577C277.783 0.986103 277.999 1.50743 278 2.05123V165.945C277.999 166.488 277.783 167.01 277.398 167.394C277.014 167.779 276.493 167.996 275.949 167.996Z" fill="white"/>
<path d="M275.949 167.996H99.4668C98.923 167.995 98.4016 167.779 98.0171 167.395C97.6326 167.01 97.4162 166.489 97.4155 165.945V2.05123C97.4162 1.50743 97.6326 0.986103 98.0171 0.601577C98.4016 0.217051 98.923 0.000710885 99.4668 0H275.949C276.492 0.000710885 277.014 0.217051 277.398 0.601577C277.783 0.986103 277.999 1.50743 278 2.05123V165.945C277.999 166.488 277.783 167.01 277.398 167.394C277.014 167.779 276.493 167.996 275.949 167.996ZM99.4668 0.818877C99.1409 0.819584 98.8285 0.949368 98.598 1.17982C98.3676 1.41027 98.2378 1.72263 98.2371 2.04854V165.945C98.2378 166.27 98.3676 166.583 98.598 166.813C98.8285 167.044 99.1408 167.173 99.4668 167.174H275.949C276.275 167.174 276.587 167.044 276.818 166.813C277.048 166.583 277.178 166.27 277.178 165.945V2.05123C277.178 1.72532 277.048 1.41296 276.817 1.18251C276.587 0.952059 276.275 0.822276 275.949 0.821568L99.4668 0.818877Z" fill="#CACACA"/>
<path d="M182.858 42.5898C182.489 42.5905 182.135 42.7375 181.875 42.9986C181.614 43.2597 181.468 43.6135 181.468 43.9824C181.468 44.3514 181.614 44.7052 181.875 44.9663C182.135 45.2274 182.489 45.3744 182.858 45.375H259.272C259.641 45.3744 259.995 45.2274 260.255 44.9663C260.516 44.7052 260.662 44.3514 260.662 43.9824C260.662 43.6135 260.516 43.2597 260.255 42.9986C259.995 42.7375 259.641 42.5905 259.272 42.5898H182.858Z" fill="#E4E4E4"/>
<path d="M182.857 50.9414C182.489 50.9423 182.135 51.0894 181.875 51.3505C181.615 51.6115 181.468 51.9652 181.468 52.334C181.468 52.7028 181.615 53.0565 181.875 53.3175C182.135 53.5786 182.489 53.7257 182.857 53.7266H221.868C222.237 53.7257 222.591 53.5786 222.851 53.3175C223.111 53.0565 223.258 52.7028 223.258 52.334C223.258 51.9652 223.111 51.6115 222.851 51.3505C222.591 51.0894 222.237 50.9423 221.868 50.9414H182.857Z" fill="#E4E4E4"/>
<path d="M116.069 95.8828C115.7 95.8837 115.347 96.0308 115.086 96.2919C114.826 96.5529 114.68 96.9067 114.68 97.2754C114.68 97.6442 114.826 97.9979 115.086 98.2589C115.347 98.52 115.7 98.6671 116.069 98.668H259.346C259.715 98.6671 260.068 98.52 260.328 98.2589C260.589 97.9979 260.735 97.6442 260.735 97.2754C260.735 96.9067 260.589 96.5529 260.328 96.2919C260.068 96.0308 259.715 95.8837 259.346 95.8828H116.069Z" fill="#E4E4E4"/>
<path d="M116.069 104.238C115.7 104.239 115.347 104.386 115.086 104.647C114.826 104.908 114.68 105.262 114.68 105.631C114.68 106 114.826 106.353 115.086 106.614C115.347 106.875 115.7 107.023 116.069 107.023H221.943C222.311 107.023 222.665 106.875 222.925 106.614C223.186 106.353 223.332 106 223.332 105.631C223.332 105.262 223.186 104.908 222.925 104.647C222.665 104.386 222.311 104.239 221.943 104.238H116.069Z" fill="#E4E4E4"/>
<path d="M116.069 112.406C115.7 112.407 115.347 112.554 115.086 112.815C114.826 113.076 114.68 113.43 114.68 113.799C114.68 114.168 114.826 114.521 115.086 114.782C115.347 115.043 115.7 115.191 116.069 115.191H259.346C259.715 115.191 260.068 115.043 260.328 114.782C260.589 114.521 260.735 114.168 260.735 113.799C260.735 113.43 260.589 113.076 260.328 112.815C260.068 112.554 259.715 112.407 259.346 112.406H116.069Z" fill="#E4E4E4"/>
<path d="M116.069 120.762C115.7 120.763 115.347 120.91 115.086 121.171C114.826 121.432 114.68 121.786 114.68 122.154C114.68 122.523 114.826 122.877 115.086 123.138C115.347 123.399 115.7 123.546 116.069 123.547H221.943C222.311 123.546 222.665 123.399 222.925 123.138C223.186 122.877 223.332 122.523 223.332 122.154C223.332 121.786 223.186 121.432 222.925 121.171C222.665 120.91 222.311 120.763 221.943 120.762H116.069Z" fill="#E4E4E4"/>
<path d="M116.069 129.148C115.7 129.149 115.347 129.296 115.086 129.558C114.826 129.819 114.68 130.172 114.68 130.541C114.68 130.91 114.826 131.263 115.086 131.525C115.347 131.786 115.7 131.933 116.069 131.934H259.346C259.715 131.933 260.068 131.786 260.328 131.525C260.589 131.263 260.735 130.91 260.735 130.541C260.735 130.172 260.589 129.819 260.328 129.558C260.068 129.296 259.715 129.149 259.346 129.148H116.069Z" fill="#E4E4E4"/>
<path d="M116.069 137.504C115.7 137.505 115.347 137.652 115.086 137.913C114.826 138.174 114.68 138.528 114.68 138.896C114.68 139.265 114.826 139.619 115.086 139.88C115.347 140.141 115.7 140.288 116.069 140.289H221.943C222.311 140.288 222.665 140.141 222.925 139.88C223.186 139.619 223.332 139.265 223.332 138.896C223.332 138.528 223.186 138.174 222.925 137.913C222.665 137.652 222.311 137.505 221.943 137.504H116.069Z" fill="#E4E4E4"/>
<path d="M138.763 68.1677C134.806 68.1678 130.937 66.9944 127.647 64.7959C124.357 62.5975 121.792 59.4727 120.278 55.8168C118.764 52.1608 118.367 48.138 119.139 44.2568C119.911 40.3757 121.817 36.8107 124.615 34.0125C127.413 31.2144 130.978 29.3088 134.859 28.5368C138.74 27.7648 142.763 28.161 146.419 29.6753C150.075 31.1897 153.2 33.7541 155.398 37.0443C157.597 40.3346 158.77 44.2029 158.77 48.16C158.764 53.4645 156.654 58.55 152.904 62.3009C149.153 66.0517 144.067 68.1616 138.763 68.1677Z" fill="#F9A826"/>
<path d="M78.0289 143.815C77.9943 143.085 77.8 142.371 77.4597 141.724C77.1194 141.077 76.6413 140.512 76.0592 140.07C75.4771 139.627 74.8051 139.318 74.0905 139.164C73.3759 139.009 72.6361 139.013 71.9233 139.175L65.31 129.855L58.666 132.493L68.1902 145.523C68.5422 146.703 69.3147 147.712 70.3612 148.36C71.4078 149.008 72.6556 149.25 73.8684 149.039C75.0811 148.829 76.1745 148.18 76.9413 147.218C77.7081 146.255 78.0951 145.044 78.0289 143.815Z" fill="#A0616A"/>
<path d="M65.1397 143.126L45.1289 117.166L52.6268 93.6012C53.1762 87.6767 56.8835 86.0224 57.0413 85.9548L57.2819 85.8516L63.8065 103.251L59.0159 116.026L70.7742 135.801L65.1397 143.126Z" fill="#3F3D56"/>
<path d="M134.634 63.1018C133.909 63.1928 133.212 63.4417 132.594 63.831C131.975 64.2203 131.449 64.7406 131.053 65.3552C130.657 65.9697 130.4 66.6637 130.302 67.388C130.203 68.1124 130.264 68.8497 130.481 69.5479L121.7 76.862L124.844 83.2821L137.099 72.779C138.247 72.3368 139.194 71.4886 139.759 70.3951C140.324 69.3016 140.469 68.0388 140.165 66.8459C139.861 65.6531 139.13 64.6131 138.111 63.923C137.092 63.233 135.855 62.9408 134.634 63.1018Z" fill="#A0616A"/>
<path d="M134.942 76.0083L110.607 97.9664L86.5331 92.3129C80.5839 92.2231 78.6479 88.6549 78.5683 88.5028L78.4468 88.2709L95.2895 80.4206L108.396 84.2091L127.204 70.957L134.942 76.0083Z" fill="#3F3D56"/>
<path d="M92.7898 232.103L99.3282 232.102L102.438 206.883L92.7886 206.883L92.7898 232.103Z" fill="#A0616A"/>
<path d="M111.938 238.176L91.3888 238.177L91.3885 230.237L106.172 230.237C107.702 230.236 109.168 230.844 110.249 231.925C111.33 233.006 111.938 234.472 111.938 236.001L111.938 238.176Z" fill="#2F2E41"/>
<path d="M66.6571 232.103L73.1955 232.102L76.3061 206.883L66.6562 206.883L66.6571 232.103Z" fill="#A0616A"/>
<path d="M85.8052 238.176L65.256 238.177L65.2557 230.237L80.0397 230.237C80.7968 230.237 81.5465 230.386 82.2459 230.675C82.9454 230.965 83.581 231.39 84.1163 231.925C84.6517 232.46 85.0764 233.096 85.3661 233.795C85.6559 234.495 85.805 235.244 85.8051 236.001L85.8052 238.176Z" fill="#2F2E41"/>
<path d="M64.3315 140.051L64.8648 177.383L65.3985 226.448L77.1312 225.382L82.9979 157.651L90.4644 225.382H102.577L103.797 157.117L99.5308 142.184L64.3315 140.051Z" fill="#2F2E41"/>
<path d="M87.296 145.061C74.5298 145.062 62.7786 139.284 62.6199 139.205L62.4882 139.139L61.4168 113.429C61.1062 112.52 54.9888 94.5924 53.9527 88.8942C52.903 83.121 68.1167 78.0543 69.9642 77.4618L70.3835 72.8176L87.4323 70.9805L89.5931 76.923L95.7095 79.2165C96.4029 79.4767 96.9768 79.9822 97.3224 80.6372C97.668 81.2923 97.7613 82.0513 97.5846 82.7706L94.1852 96.5947L102.488 142.332L100.7 142.409C96.4158 144.344 91.7916 145.061 87.296 145.061Z" fill="#3F3D56"/>
<path d="M85.4633 66.5367C91.4119 63.2849 93.5981 55.8265 90.3463 49.8778C87.0945 43.9292 79.636 41.743 73.6874 44.9949C67.7388 48.2467 65.5526 55.7051 68.8045 61.6537C72.0563 67.6024 79.5147 69.7885 85.4633 66.5367Z" fill="#A0616A"/>
<path d="M69.6334 67.6509C71.9727 70.1428 76.3173 68.8051 76.6221 65.4007C76.646 65.1364 76.6443 64.8704 76.6169 64.6065C76.4595 63.0985 75.5884 61.7294 75.797 60.1372C75.8442 59.7409 75.9919 59.3633 76.2259 59.0401C78.0901 56.5438 82.4661 60.1566 84.2255 57.8968C85.3043 56.5111 84.0362 54.3294 84.864 52.7807C85.9566 50.7367 89.193 51.745 91.2225 50.6256C93.4805 49.38 93.3455 45.9155 91.8591 43.8082C90.0463 41.2382 86.868 39.8669 83.7292 39.6693C80.5905 39.4717 77.4734 40.3201 74.5431 41.4621C71.2137 42.7596 67.9121 44.5528 65.8632 47.4803C63.3716 51.0405 63.1318 55.8269 64.3779 59.9899C65.136 62.5224 67.723 65.6159 69.6334 67.6509Z" fill="#2F2E41"/>
<path d="M155.978 238.492H0.40832C0.300027 238.492 0.196162 238.449 0.119588 238.373C0.0430128 238.296 0 238.192 0 238.084C0 237.976 0.0430128 237.872 0.119588 237.795C0.196162 237.719 0.300027 237.676 0.40832 237.676H155.978C156.087 237.676 156.19 237.719 156.267 237.795C156.344 237.872 156.387 237.976 156.387 238.084C156.387 238.192 156.344 238.296 156.267 238.373C156.19 238.449 156.087 238.492 155.978 238.492Z" fill="#CACACA"/>
<path d="M137.608 55.7159C137.247 55.7163 136.899 55.5798 136.635 55.3339L130.038 49.2061C129.761 48.948 129.597 48.5905 129.583 48.2119C129.57 47.8334 129.707 47.4649 129.964 47.1874C130.222 46.9099 130.58 46.746 130.958 46.7319C131.337 46.7177 131.705 46.8544 131.983 47.1118L137.571 52.3024L148.627 41.2466C148.76 41.1131 148.917 41.007 149.091 40.9346C149.264 40.8621 149.451 40.8246 149.639 40.8242C149.827 40.8239 150.013 40.8607 150.187 40.9325C150.361 41.0044 150.519 41.1098 150.652 41.2429C150.785 41.3759 150.891 41.534 150.962 41.7079C151.034 41.8817 151.071 42.0681 151.071 42.2563C151.07 42.4444 151.033 42.6306 150.96 42.8042C150.888 42.9778 150.782 43.1354 150.648 43.2679L138.618 55.2974C138.486 55.4302 138.328 55.5356 138.155 55.6074C137.981 55.6792 137.795 55.7161 137.608 55.7159Z" fill="white"/>
</g>
<defs>
<clipPath id="clip0_815_53237">
<rect width="278" height="238.554" fill="white"/>
</clipPath>
</defs>
</svg>
